<svg width="263" height="271" viewBox="0 0 263 271" fill="none" xmlns="http://www.w3.org/2000/svg">
<path opacity="0.05" fill-rule="evenodd" clip-rule="evenodd" d="M0 102.721V120.002H103.441L107.041 72.961H92.1613C91.3613 78.5611 90.1612 83.7611 88.5612 88.5612C86.9612 93.2013 84.6412 96.8813 81.6011 99.6014C78.7211 102.321 74.721 103.601 69.601 103.441L35.7605 102.481C38.0005 100.561 40.2405 98.4013 42.4806 96.0013C44.7206 93.6013 46.9606 90.8812 49.2007 87.8412L102.721 15.1202V0H5.52008L2.16003 46.3206H17.0402C17.8402 40.7206 18.9603 35.6805 20.4003 31.2004C21.8403 26.7204 23.6803 23.1203 25.9204 20.4003C28.3204 17.5202 31.3604 16.0802 35.0405 16.0802L67.4409 15.6002C66.8009 16.2402 65.2809 17.9202 62.8809 20.6403C60.4808 23.3603 57.9208 26.4804 55.2008 30.0004L0 102.721ZM0 252.723V270.004H103.441L107.041 222.963H92.1613C91.3613 228.563 90.1612 233.763 88.5612 238.563C86.9612 243.203 84.6412 246.883 81.6011 249.603C78.7211 252.323 74.721 253.603 69.601 253.443L35.7605 252.483C38.0005 250.563 40.2405 248.403 42.4806 246.003C44.7206 243.603 46.9606 240.883 49.2007 237.843L102.721 165.122V150.002H5.52008L2.16003 196.323H17.0402C17.8402 190.723 18.9603 185.682 20.4003 181.202C21.8403 176.722 23.6803 173.122 25.9204 170.402C28.3204 167.522 31.3604 166.082 35.0405 166.082L67.4409 165.602C66.8009 166.242 65.2809 167.922 62.8809 170.642C60.4808 173.362 57.9208 176.482 55.2008 180.002L0 252.723ZM124.909 252.723V270.004H228.351L231.951 222.963H217.07C216.27 228.563 215.07 233.763 213.47 238.563C211.87 243.203 209.55 246.883 206.51 249.603C203.63 252.323 199.63 253.603 194.51 253.443L160.67 252.483C162.91 250.563 165.15 248.403 167.39 246.003C169.63 243.603 171.87 240.883 174.11 237.843L227.631 165.122V150.002H130.429L127.069 196.323H141.949C142.749 190.723 143.869 185.682 145.309 181.202C146.749 176.722 148.589 173.122 150.829 170.402C153.23 167.522 156.27 166.082 159.95 166.082L192.35 165.602C191.71 166.242 190.19 167.922 187.79 170.642C185.39 173.362 182.83 176.482 180.11 180.002L124.909 252.723ZM249.818 270.004V252.723L305.019 180.002C307.739 176.482 310.299 173.362 312.699 170.642C315.099 167.922 316.619 166.242 317.259 165.602L284.858 166.082C281.178 166.082 278.138 167.522 275.738 170.402C273.498 173.122 271.658 176.722 270.218 181.202C268.778 185.682 267.658 190.723 266.858 196.323H251.978L255.338 150.002H352.539V165.122L299.019 237.843C296.779 240.883 294.538 243.603 292.298 246.003C290.058 248.403 287.818 250.563 285.578 252.483L319.419 253.443C324.539 253.603 328.539 252.323 331.419 249.603C334.459 246.883 336.779 243.203 338.379 238.563C339.979 233.763 341.179 228.563 341.979 222.963H356.859L353.259 270.004H249.818ZM124.909 120.002V102.721L180.11 30.0004C182.83 26.4804 185.39 23.3603 187.79 20.6403C190.19 17.9202 191.71 16.2402 192.35 15.6002L159.95 16.0802C156.27 16.0802 153.23 17.5202 150.829 20.4003C148.589 23.1203 146.749 26.7204 145.309 31.2004C143.869 35.6805 142.749 40.7206 141.949 46.3206H127.069L130.429 0H227.631V15.1202L174.11 87.8412C171.87 90.8812 169.63 93.6013 167.39 96.0013C165.15 98.4013 162.91 100.561 160.67 102.481L194.51 103.441C199.63 103.601 203.63 102.321 206.51 99.6014C209.55 96.8813 211.87 93.2013 213.47 88.5612C215.07 83.7611 216.27 78.5611 217.07 72.961H231.951L228.351 120.002H124.909ZM249.818 102.721V120.002H353.259L356.859 72.961H341.979C341.179 78.5611 339.979 83.7611 338.379 88.5612C336.779 93.2013 334.459 96.8813 331.419 99.6014C328.539 102.321 324.539 103.601 319.419 103.441L285.578 102.481C287.818 100.561 290.058 98.4013 292.298 96.0013C294.538 93.6013 296.779 90.8812 299.019 87.8412L352.539 15.1202V0H255.338L251.978 46.3206H266.858C267.658 40.7206 268.778 35.6805 270.218 31.2004C271.658 26.7204 273.498 23.1203 275.738 20.4003C278.138 17.5202 281.178 16.0802 284.858 16.0802L317.259 15.6002C316.619 16.2402 315.099 17.9202 312.699 20.6403C310.299 23.3603 307.739 26.4804 305.019 30.0004L249.818 102.721Z" fill="black"/>
</svg>
