<svg width="30" height="29" viewBox="0 0 30 29" fill="none" xmlns="http://www.w3.org/2000/svg">
<path fill-rule="evenodd" clip-rule="evenodd" d="M7.80274 14.7041C8.35981 14.5485 8.62556 14.9063 8.97676 15.1517C12.4352 17.5684 11.2414 17.8269 15.6075 13.4223L20.7128 8.30563C21.0572 7.96182 21.9838 6.80437 22.6482 6.79256C23.2092 6.78262 23.4445 7.24061 23.2434 7.75284L13.2734 19.9506C12.9875 20.2897 12.7626 20.5447 12.5013 20.884C11.2784 22.472 10.775 20.6777 9.42449 18.2263C8.87602 17.2307 7.63724 15.3939 7.80277 14.7041L7.80274 14.7041ZM29.8939 15.0049C30.3633 12.6438 29.1942 10.7979 27.9798 9.67019C26.6422 8.42807 27.4164 8.65977 27.0804 6.81652C26.5574 3.94777 24.2563 1.95438 20.6835 2.35657C18.6304 2.5877 18.8381 0.448347 15.6917 0.0422958C14.5341 -0.107098 13.422 0.153111 12.5612 0.604846C11.5427 1.13935 11.1515 1.88663 10.4221 2.21443C9.37263 2.68605 6.82785 1.51723 4.69204 3.64484C2.12744 6.19962 3.23425 7.70438 2.85269 9.18218C2.67248 9.88023 1.5749 10.5828 1.12391 11.2137C-0.877396 14.0136 -0.0189234 16.9957 2.22782 19.0601C3.66654 20.3821 1.96272 21.8406 4.2189 24.4501C6.25065 26.8 8.16071 26.174 9.68821 26.1826C10.6768 26.1881 11.3458 27.1648 11.9764 27.6053C13.7309 28.8309 15.9346 28.8579 17.7285 27.8173C18.6031 27.31 19.1798 26.3612 19.7971 26.1426C20.5703 25.8688 21.8018 26.4687 23.05 26.2819C25.8599 25.8616 28.0588 23.2654 27.688 20.0548C27.4104 17.6508 29.2395 18.2962 29.8939 15.005V15.0049Z" fill="white"/>
<path fill-rule="evenodd" clip-rule="evenodd" d="M7.8022 14.7042C7.63669 15.394 8.87544 17.2308 9.4239 18.2264C10.7744 20.6778 11.2778 22.4721 12.5007 20.8841C12.762 20.5448 12.9869 20.2898 13.2728 19.9506L23.2428 7.75292C23.4439 7.24067 23.2086 6.78267 22.6476 6.79264C21.9832 6.80445 21.0566 7.9619 20.7122 8.30572L15.6069 13.4224C11.2408 17.827 12.4347 17.5685 8.97619 15.1517C8.62498 14.9063 8.35923 14.5486 7.80216 14.7042L7.8022 14.7042Z" fill="black"/>
</svg>
