<svg width="30" height="28" viewBox="0 0 30 28" fill="none" xmlns="http://www.w3.org/2000/svg">
<path d="M16.9994 2.32073L16.6767 1.93878L16.9994 2.32073C19.9081 -0.136464 23.449 0.0836959 26.0266 1.95631C28.6067 3.83072 30.2277 7.3748 29.1743 11.5892L29.6594 11.7104L29.1743 11.5892C28.5024 14.2774 26.8261 16.7643 24.8803 18.4047C24.4622 18.7571 23.0897 19.9913 21.4805 21.4383C20.831 22.0224 20.1429 22.6411 19.4634 23.2506C18.278 24.3138 17.1154 25.3519 16.2193 26.1377C15.771 26.5308 15.3916 26.8588 15.1105 27.0945C15.0294 27.1625 14.9576 27.2219 14.8953 27.2724C14.7581 27.1596 14.6324 27.036 14.4617 26.8681C14.3971 26.8046 14.326 26.7348 14.2455 26.6568L14.2389 26.6504L14.2322 26.6444L11.1941 23.9093L11.1941 23.9093L11.1906 23.9062C10.3822 23.1917 8.63548 21.6205 6.97877 20.0884C5.3044 18.5401 3.77095 17.0759 3.34905 16.5519L2.95958 16.8654L3.34905 16.5518C-0.589829 11.6592 0.00189727 6.57786 2.42777 3.48798C3.64729 1.93465 5.328 0.883803 7.14599 0.58644C8.95444 0.290635 10.9347 0.733867 12.787 2.23214C13.316 2.66 13.553 2.95085 13.7446 3.22162C13.7869 3.28139 13.8294 3.34415 13.874 3.41005C14.0355 3.64843 14.2249 3.92792 14.5325 4.2563L14.8388 4.58319L15.1972 4.31459C15.3436 4.20493 15.469 4.05838 15.5757 3.9241C15.6371 3.84679 15.7085 3.75201 15.7817 3.65491C15.8318 3.58844 15.8828 3.52088 15.9319 3.4571C16.1901 3.12153 16.5187 2.72679 16.9994 2.32073Z" fill="#FEFEFE" stroke="black"/>
</svg>
