<svg width="512" height="367" viewBox="0 0 512 367" fill="none" xmlns="http://www.w3.org/2000/svg">
<g opacity="0.5">
<path d="M2.028 63V54.55L2.769 55.317H0.104V53.9H3.718V63H2.028ZM7.04417 63L10.8012 54.576L11.2432 55.33H6.08217L6.88817 54.511V56.877H5.31517V53.9H12.3872V55.031L8.85117 63H7.04417ZM17.1174 63.13C16.2941 63.13 15.5878 62.9567 14.9984 62.61C14.4091 62.2547 13.9584 61.7433 13.6464 61.076C13.3344 60.4087 13.1784 59.5853 13.1784 58.606C13.1784 57.566 13.3648 56.6863 13.7374 55.967C14.1188 55.2477 14.6431 54.7017 15.3104 54.329C15.9864 53.9563 16.7621 53.77 17.6374 53.77C18.0968 53.77 18.5344 53.8177 18.9504 53.913C19.3751 54.0083 19.7348 54.1557 20.0294 54.355L19.4054 55.629C19.1541 55.4643 18.8811 55.3517 18.5864 55.291C18.3004 55.2217 17.9971 55.187 17.6764 55.187C16.8184 55.187 16.1381 55.4513 15.6354 55.98C15.1328 56.5087 14.8814 57.2887 14.8814 58.32C14.8814 58.4847 14.8858 58.6797 14.8944 58.905C14.9031 59.1217 14.9334 59.3427 14.9854 59.568L14.4654 58.996C14.6214 58.6407 14.8338 58.346 15.1024 58.112C15.3798 57.8693 15.7048 57.6873 16.0774 57.566C16.4588 57.4447 16.8704 57.384 17.3124 57.384C17.9104 57.384 18.4434 57.501 18.9114 57.735C19.3794 57.9603 19.7521 58.2853 20.0294 58.71C20.3068 59.126 20.4454 59.6157 20.4454 60.179C20.4454 60.777 20.2981 61.297 20.0034 61.739C19.7088 62.181 19.3101 62.5233 18.8074 62.766C18.3048 63.0087 17.7414 63.13 17.1174 63.13ZM17.0264 61.804C17.3731 61.804 17.6808 61.7433 17.9494 61.622C18.2181 61.492 18.4261 61.31 18.5734 61.076C18.7294 60.842 18.8074 60.569 18.8074 60.257C18.8074 59.7803 18.6428 59.4033 18.3134 59.126C17.9841 58.8487 17.5421 58.71 16.9874 58.71C16.6234 58.71 16.3028 58.7793 16.0254 58.918C15.7568 59.048 15.5401 59.23 15.3754 59.464C15.2194 59.698 15.1414 59.9667 15.1414 60.27C15.1414 60.5473 15.2151 60.803 15.3624 61.037C15.5098 61.271 15.7221 61.4573 15.9994 61.596C16.2854 61.7347 16.6278 61.804 17.0264 61.804Z" fill="white"/>
<path d="M0 64.625H20.7574V65.275H0V64.625Z" fill="white"/>
</g>
<g opacity="0.5">
<path d="M458.432 63.13C457.791 63.13 457.162 63.039 456.547 62.857C455.94 62.6663 455.429 62.4063 455.013 62.077L455.741 60.764C456.07 61.0327 456.469 61.2493 456.937 61.414C457.405 61.5787 457.895 61.661 458.406 61.661C459.013 61.661 459.485 61.5397 459.823 61.297C460.161 61.0457 460.33 60.7077 460.33 60.283C460.33 59.867 460.174 59.5377 459.862 59.295C459.55 59.0523 459.047 58.931 458.354 58.931H457.522V57.774L460.122 54.68L460.343 55.317H455.455V53.9H461.656V55.031L459.056 58.125L458.172 57.605H458.679C459.797 57.605 460.633 57.8563 461.188 58.359C461.751 58.853 462.033 59.49 462.033 60.27C462.033 60.7813 461.903 61.2537 461.643 61.687C461.383 62.1203 460.984 62.4713 460.447 62.74C459.918 63 459.247 63.13 458.432 63.13ZM464.152 63.091C463.858 63.091 463.606 62.9913 463.398 62.792C463.19 62.584 463.086 62.324 463.086 62.012C463.086 61.6827 463.19 61.4227 463.398 61.232C463.606 61.0327 463.858 60.933 464.152 60.933C464.447 60.933 464.698 61.0327 464.906 61.232C465.114 61.4227 465.218 61.6827 465.218 62.012C465.218 62.324 465.114 62.584 464.906 62.792C464.698 62.9913 464.447 63.091 464.152 63.091ZM467.643 63L471.4 54.576L471.842 55.33H466.681L467.487 54.511V56.877H465.914V53.9H472.986V55.031L469.45 63H467.643ZM475.614 63V54.55L476.355 55.317H473.69V53.9H477.304V63H475.614ZM482.905 63.13C482.186 63.13 481.536 62.948 480.955 62.584C480.383 62.22 479.932 61.6913 479.603 60.998C479.274 60.296 479.109 59.4467 479.109 58.45C479.109 57.4533 479.274 56.6083 479.603 55.915C479.932 55.213 480.383 54.68 480.955 54.316C481.536 53.952 482.186 53.77 482.905 53.77C483.633 53.77 484.283 53.952 484.855 54.316C485.427 54.68 485.878 55.213 486.207 55.915C486.545 56.6083 486.714 57.4533 486.714 58.45C486.714 59.4467 486.545 60.296 486.207 60.998C485.878 61.6913 485.427 62.22 484.855 62.584C484.283 62.948 483.633 63.13 482.905 63.13ZM482.905 61.661C483.33 61.661 483.698 61.5483 484.01 61.323C484.322 61.089 484.565 60.7337 484.738 60.257C484.92 59.7803 485.011 59.178 485.011 58.45C485.011 57.7133 484.92 57.111 484.738 56.643C484.565 56.1663 484.322 55.8153 484.01 55.59C483.698 55.356 483.33 55.239 482.905 55.239C482.498 55.239 482.134 55.356 481.813 55.59C481.501 55.8153 481.254 56.1663 481.072 56.643C480.899 57.111 480.812 57.7133 480.812 58.45C480.812 59.178 480.899 59.7803 481.072 60.257C481.254 60.7337 481.501 61.089 481.813 61.323C482.134 61.5483 482.498 61.661 482.905 61.661ZM487.769 64.963L488.523 62.09L488.744 63.052C488.441 63.052 488.185 62.961 487.977 62.779C487.778 62.5883 487.678 62.3327 487.678 62.012C487.678 61.6827 487.778 61.4227 487.977 61.232C488.185 61.0327 488.436 60.933 488.731 60.933C489.034 60.933 489.286 61.0327 489.485 61.232C489.684 61.4313 489.784 61.6913 489.784 62.012C489.784 62.0987 489.775 62.194 489.758 62.298C489.741 62.3933 489.71 62.506 489.667 62.636C489.632 62.766 489.572 62.9307 489.485 63.13L488.822 64.963H487.769ZM494.521 63.13C493.802 63.13 493.152 62.948 492.571 62.584C491.999 62.22 491.549 61.6913 491.219 60.998C490.89 60.296 490.725 59.4467 490.725 58.45C490.725 57.4533 490.89 56.6083 491.219 55.915C491.549 55.213 491.999 54.68 492.571 54.316C493.152 53.952 493.802 53.77 494.521 53.77C495.249 53.77 495.899 53.952 496.471 54.316C497.043 54.68 497.494 55.213 497.823 55.915C498.161 56.6083 498.33 57.4533 498.33 58.45C498.33 59.4467 498.161 60.296 497.823 60.998C497.494 61.6913 497.043 62.22 496.471 62.584C495.899 62.948 495.249 63.13 494.521 63.13ZM494.521 61.661C494.946 61.661 495.314 61.5483 495.626 61.323C495.938 61.089 496.181 60.7337 496.354 60.257C496.536 59.7803 496.627 59.178 496.627 58.45C496.627 57.7133 496.536 57.111 496.354 56.643C496.181 56.1663 495.938 55.8153 495.626 55.59C495.314 55.356 494.946 55.239 494.521 55.239C494.114 55.239 493.75 55.356 493.429 55.59C493.117 55.8153 492.87 56.1663 492.688 56.643C492.515 57.111 492.428 57.7133 492.428 58.45C492.428 59.178 492.515 59.7803 492.688 60.257C492.87 60.7337 493.117 61.089 493.429 61.323C493.75 61.5483 494.114 61.661 494.521 61.661ZM500.122 63V53.9H501.513L505.491 60.543H504.763L508.676 53.9H510.067L510.08 63H508.481L508.468 56.409H508.806L505.478 61.96H504.724L501.344 56.409H501.734V63H500.122Z" fill="white"/>
<path d="M455 64.625H511.315V65.275H455V64.625Z" fill="white"/>
</g>
<g opacity="0.5">
<path d="M358.028 132V123.55L358.769 124.317H356.104V122.9H359.718V132H358.028ZM362.537 132.091C362.243 132.091 361.991 131.991 361.783 131.792C361.575 131.584 361.471 131.324 361.471 131.012C361.471 130.683 361.575 130.423 361.783 130.232C361.991 130.033 362.243 129.933 362.537 129.933C362.832 129.933 363.083 130.033 363.291 130.232C363.499 130.423 363.603 130.683 363.603 131.012C363.603 131.324 363.499 131.584 363.291 131.792C363.083 131.991 362.832 132.091 362.537 132.091ZM367.684 132.13C367.043 132.13 366.414 132.039 365.799 131.857C365.192 131.666 364.681 131.406 364.265 131.077L364.993 129.764C365.322 130.033 365.721 130.249 366.189 130.414C366.657 130.579 367.147 130.661 367.658 130.661C368.265 130.661 368.737 130.54 369.075 130.297C369.413 130.046 369.582 129.708 369.582 129.283C369.582 128.867 369.426 128.538 369.114 128.295C368.802 128.052 368.299 127.931 367.606 127.931H366.774V126.774L369.374 123.68L369.595 124.317H364.707V122.9H370.908V124.031L368.308 127.125L367.424 126.605H367.931C369.049 126.605 369.885 126.856 370.44 127.359C371.003 127.853 371.285 128.49 371.285 129.27C371.285 129.781 371.155 130.254 370.895 130.687C370.635 131.12 370.236 131.471 369.699 131.74C369.17 132 368.499 132.13 367.684 132.13ZM376.043 132.13C375.289 132.13 374.635 132.017 374.08 131.792C373.526 131.567 373.097 131.25 372.793 130.843C372.49 130.427 372.338 129.942 372.338 129.387C372.338 128.832 372.486 128.364 372.78 127.983C373.075 127.602 373.5 127.311 374.054 127.112C374.609 126.913 375.272 126.813 376.043 126.813C376.815 126.813 377.478 126.913 378.032 127.112C378.596 127.311 379.025 127.606 379.319 127.996C379.623 128.377 379.774 128.841 379.774 129.387C379.774 129.942 379.618 130.427 379.306 130.843C379.003 131.25 378.57 131.567 378.006 131.792C377.452 132.017 376.797 132.13 376.043 132.13ZM376.043 130.804C376.667 130.804 377.161 130.674 377.525 130.414C377.889 130.154 378.071 129.794 378.071 129.335C378.071 128.884 377.889 128.529 377.525 128.269C377.161 128.009 376.667 127.879 376.043 127.879C375.419 127.879 374.93 128.009 374.574 128.269C374.219 128.529 374.041 128.884 374.041 129.335C374.041 129.794 374.219 130.154 374.574 130.414C374.93 130.674 375.419 130.804 376.043 130.804ZM376.043 127.697C375.341 127.697 374.739 127.606 374.236 127.424C373.734 127.233 373.344 126.96 373.066 126.605C372.798 126.241 372.663 125.808 372.663 125.305C372.663 124.785 372.802 124.339 373.079 123.966C373.365 123.585 373.764 123.29 374.275 123.082C374.787 122.874 375.376 122.77 376.043 122.77C376.719 122.77 377.313 122.874 377.824 123.082C378.336 123.29 378.734 123.585 379.02 123.966C379.306 124.339 379.449 124.785 379.449 125.305C379.449 125.808 379.311 126.241 379.033 126.605C378.765 126.96 378.375 127.233 377.863 127.424C377.352 127.606 376.745 127.697 376.043 127.697ZM376.043 126.657C376.581 126.657 377.005 126.544 377.317 126.319C377.629 126.085 377.785 125.773 377.785 125.383C377.785 124.976 377.625 124.659 377.304 124.434C376.984 124.209 376.563 124.096 376.043 124.096C375.523 124.096 375.107 124.209 374.795 124.434C374.483 124.659 374.327 124.976 374.327 125.383C374.327 125.773 374.479 126.085 374.782 126.319C375.094 126.544 375.515 126.657 376.043 126.657ZM384.667 132.13C383.947 132.13 383.297 131.948 382.717 131.584C382.145 131.22 381.694 130.691 381.365 129.998C381.035 129.296 380.871 128.447 380.871 127.45C380.871 126.453 381.035 125.608 381.365 124.915C381.694 124.213 382.145 123.68 382.717 123.316C383.297 122.952 383.947 122.77 384.667 122.77C385.395 122.77 386.045 122.952 386.617 123.316C387.189 123.68 387.639 124.213 387.969 124.915C388.307 125.608 388.476 126.453 388.476 127.45C388.476 128.447 388.307 129.296 387.969 129.998C387.639 130.691 387.189 131.22 386.617 131.584C386.045 131.948 385.395 132.13 384.667 132.13ZM384.667 130.661C385.091 130.661 385.46 130.548 385.772 130.323C386.084 130.089 386.326 129.734 386.5 129.257C386.682 128.78 386.773 128.178 386.773 127.45C386.773 126.713 386.682 126.111 386.5 125.643C386.326 125.166 386.084 124.815 385.772 124.59C385.46 124.356 385.091 124.239 384.667 124.239C384.259 124.239 383.895 124.356 383.575 124.59C383.263 124.815 383.016 125.166 382.834 125.643C382.66 126.111 382.574 126.713 382.574 127.45C382.574 128.178 382.66 128.78 382.834 129.257C383.016 129.734 383.263 130.089 383.575 130.323C383.895 130.548 384.259 130.661 384.667 130.661ZM389.531 133.963L390.285 131.09L390.506 132.052C390.202 132.052 389.947 131.961 389.739 131.779C389.539 131.588 389.44 131.333 389.44 131.012C389.44 130.683 389.539 130.423 389.739 130.232C389.947 130.033 390.198 129.933 390.493 129.933C390.796 129.933 391.047 130.033 391.247 130.232C391.446 130.431 391.546 130.691 391.546 131.012C391.546 131.099 391.537 131.194 391.52 131.298C391.502 131.393 391.472 131.506 391.429 131.636C391.394 131.766 391.333 131.931 391.247 132.13L390.584 133.963H389.531ZM396.283 132.13C395.564 132.13 394.914 131.948 394.333 131.584C393.761 131.22 393.31 130.691 392.981 129.998C392.652 129.296 392.487 128.447 392.487 127.45C392.487 126.453 392.652 125.608 392.981 124.915C393.31 124.213 393.761 123.68 394.333 123.316C394.914 122.952 395.564 122.77 396.283 122.77C397.011 122.77 397.661 122.952 398.233 123.316C398.805 123.68 399.256 124.213 399.585 124.915C399.923 125.608 400.092 126.453 400.092 127.45C400.092 128.447 399.923 129.296 399.585 129.998C399.256 130.691 398.805 131.22 398.233 131.584C397.661 131.948 397.011 132.13 396.283 132.13ZM396.283 130.661C396.708 130.661 397.076 130.548 397.388 130.323C397.7 130.089 397.943 129.734 398.116 129.257C398.298 128.78 398.389 128.178 398.389 127.45C398.389 126.713 398.298 126.111 398.116 125.643C397.943 125.166 397.7 124.815 397.388 124.59C397.076 124.356 396.708 124.239 396.283 124.239C395.876 124.239 395.512 124.356 395.191 124.59C394.879 124.815 394.632 125.166 394.45 125.643C394.277 126.111 394.19 126.713 394.19 127.45C394.19 128.178 394.277 128.78 394.45 129.257C394.632 129.734 394.879 130.089 395.191 130.323C395.512 130.548 395.876 130.661 396.283 130.661ZM401.884 132V122.9H403.275L407.253 129.543H406.525L410.438 122.9H411.829L411.842 132H410.243L410.23 125.409H410.568L407.24 130.96H406.486L403.106 125.409H403.496V132H401.884Z" fill="white"/>
<path d="M356 133.625H413.077V134.275H356V133.625Z" fill="white"/>
</g>
<g opacity="0.5">
<path d="M344.028 200V191.55L344.769 192.317H342.104V190.9H345.718V200H344.028ZM348.537 200.091C348.243 200.091 347.991 199.991 347.783 199.792C347.575 199.584 347.471 199.324 347.471 199.012C347.471 198.683 347.575 198.423 347.783 198.232C347.991 198.033 348.243 197.933 348.537 197.933C348.832 197.933 349.083 198.033 349.291 198.232C349.499 198.423 349.603 198.683 349.603 199.012C349.603 199.324 349.499 199.584 349.291 199.792C349.083 199.991 348.832 200.091 348.537 200.091ZM354.341 200.13C353.621 200.13 352.971 199.948 352.391 199.584C351.819 199.22 351.368 198.691 351.039 197.998C350.709 197.296 350.545 196.447 350.545 195.45C350.545 194.453 350.709 193.608 351.039 192.915C351.368 192.213 351.819 191.68 352.391 191.316C352.971 190.952 353.621 190.77 354.341 190.77C355.069 190.77 355.719 190.952 356.291 191.316C356.863 191.68 357.313 192.213 357.643 192.915C357.981 193.608 358.15 194.453 358.15 195.45C358.15 196.447 357.981 197.296 357.643 197.998C357.313 198.691 356.863 199.22 356.291 199.584C355.719 199.948 355.069 200.13 354.341 200.13ZM354.341 198.661C354.765 198.661 355.134 198.548 355.446 198.323C355.758 198.089 356 197.734 356.174 197.257C356.356 196.78 356.447 196.178 356.447 195.45C356.447 194.713 356.356 194.111 356.174 193.643C356 193.166 355.758 192.815 355.446 192.59C355.134 192.356 354.765 192.239 354.341 192.239C353.933 192.239 353.569 192.356 353.249 192.59C352.937 192.815 352.69 193.166 352.508 193.643C352.334 194.111 352.248 194.713 352.248 195.45C352.248 196.178 352.334 196.78 352.508 197.257C352.69 197.734 352.937 198.089 353.249 198.323C353.569 198.548 353.933 198.661 354.341 198.661ZM360.749 200L364.506 191.576L364.948 192.33H359.787L360.593 191.511V193.877H359.02V190.9H366.092V192.031L362.556 200H360.749ZM370.68 200.13C369.96 200.13 369.31 199.948 368.73 199.584C368.158 199.22 367.707 198.691 367.378 197.998C367.048 197.296 366.884 196.447 366.884 195.45C366.884 194.453 367.048 193.608 367.378 192.915C367.707 192.213 368.158 191.68 368.73 191.316C369.31 190.952 369.96 190.77 370.68 190.77C371.408 190.77 372.058 190.952 372.63 191.316C373.202 191.68 373.652 192.213 373.982 192.915C374.32 193.608 374.489 194.453 374.489 195.45C374.489 196.447 374.32 197.296 373.982 197.998C373.652 198.691 373.202 199.22 372.63 199.584C372.058 199.948 371.408 200.13 370.68 200.13ZM370.68 198.661C371.104 198.661 371.473 198.548 371.785 198.323C372.097 198.089 372.339 197.734 372.513 197.257C372.695 196.78 372.786 196.178 372.786 195.45C372.786 194.713 372.695 194.111 372.513 193.643C372.339 193.166 372.097 192.815 371.785 192.59C371.473 192.356 371.104 192.239 370.68 192.239C370.272 192.239 369.908 192.356 369.588 192.59C369.276 192.815 369.029 193.166 368.847 193.643C368.673 194.111 368.587 194.713 368.587 195.45C368.587 196.178 368.673 196.78 368.847 197.257C369.029 197.734 369.276 198.089 369.588 198.323C369.908 198.548 370.272 198.661 370.68 198.661ZM375.543 201.963L376.297 199.09L376.518 200.052C376.215 200.052 375.959 199.961 375.751 199.779C375.552 199.588 375.452 199.333 375.452 199.012C375.452 198.683 375.552 198.423 375.751 198.232C375.959 198.033 376.211 197.933 376.505 197.933C376.809 197.933 377.06 198.033 377.259 198.232C377.459 198.431 377.558 198.691 377.558 199.012C377.558 199.099 377.55 199.194 377.532 199.298C377.515 199.393 377.485 199.506 377.441 199.636C377.407 199.766 377.346 199.931 377.259 200.13L376.596 201.963H375.543ZM382.296 200.13C381.576 200.13 380.926 199.948 380.346 199.584C379.774 199.22 379.323 198.691 378.994 197.998C378.664 197.296 378.5 196.447 378.5 195.45C378.5 194.453 378.664 193.608 378.994 192.915C379.323 192.213 379.774 191.68 380.346 191.316C380.926 190.952 381.576 190.77 382.296 190.77C383.024 190.77 383.674 190.952 384.246 191.316C384.818 191.68 385.268 192.213 385.598 192.915C385.936 193.608 386.105 194.453 386.105 195.45C386.105 196.447 385.936 197.296 385.598 197.998C385.268 198.691 384.818 199.22 384.246 199.584C383.674 199.948 383.024 200.13 382.296 200.13ZM382.296 198.661C382.72 198.661 383.089 198.548 383.401 198.323C383.713 198.089 383.955 197.734 384.129 197.257C384.311 196.78 384.402 196.178 384.402 195.45C384.402 194.713 384.311 194.111 384.129 193.643C383.955 193.166 383.713 192.815 383.401 192.59C383.089 192.356 382.72 192.239 382.296 192.239C381.888 192.239 381.524 192.356 381.204 192.59C380.892 192.815 380.645 193.166 380.463 193.643C380.289 194.111 380.203 194.713 380.203 195.45C380.203 196.178 380.289 196.78 380.463 197.257C380.645 197.734 380.892 198.089 381.204 198.323C381.524 198.548 381.888 198.661 382.296 198.661ZM387.897 200V190.9H389.288L393.266 197.543H392.538L396.451 190.9H397.842L397.855 200H396.256L396.243 193.409H396.581L393.253 198.96H392.499L389.119 193.409H389.509V200H387.897Z" fill="white"/>
<path d="M342 201.625H399.09V202.275H342V201.625Z" fill="white"/>
</g>
<g opacity="0.5">
<path d="M322.588 269.13C321.947 269.13 321.318 269.039 320.703 268.857C320.096 268.666 319.585 268.406 319.169 268.077L319.884 266.764C320.213 267.033 320.612 267.249 321.08 267.414C321.557 267.579 322.051 267.661 322.562 267.661C323.16 267.661 323.628 267.535 323.966 267.284C324.313 267.033 324.486 266.695 324.486 266.27C324.486 265.984 324.412 265.733 324.265 265.516C324.126 265.299 323.875 265.135 323.511 265.022C323.156 264.909 322.666 264.853 322.042 264.853H319.845L320.313 259.9H325.656V261.317H320.937L321.821 260.511L321.47 264.216L320.586 263.423H322.419C323.32 263.423 324.044 263.544 324.59 263.787C325.145 264.021 325.548 264.35 325.799 264.775C326.059 265.191 326.189 265.668 326.189 266.205C326.189 266.734 326.059 267.219 325.799 267.661C325.539 268.103 325.14 268.458 324.603 268.727C324.074 268.996 323.403 269.13 322.588 269.13ZM329.96 269.13C329.319 269.13 328.691 269.039 328.075 268.857C327.469 268.666 326.957 268.406 326.541 268.077L327.269 266.764C327.599 267.033 327.997 267.249 328.465 267.414C328.933 267.579 329.423 267.661 329.934 267.661C330.541 267.661 331.013 267.54 331.351 267.297C331.689 267.046 331.858 266.708 331.858 266.283C331.858 265.867 331.702 265.538 331.39 265.295C331.078 265.052 330.576 264.931 329.882 264.931H329.05V263.774L331.65 260.68L331.871 261.317H326.983V259.9H333.184V261.031L330.584 264.125L329.7 263.605H330.207C331.325 263.605 332.162 263.856 332.716 264.359C333.28 264.853 333.561 265.49 333.561 266.27C333.561 266.781 333.431 267.254 333.171 267.687C332.911 268.12 332.513 268.471 331.975 268.74C331.447 269 330.775 269.13 329.96 269.13ZM338.463 269.13C337.743 269.13 337.093 268.948 336.513 268.584C335.941 268.22 335.49 267.691 335.161 266.998C334.831 266.296 334.667 265.447 334.667 264.45C334.667 263.453 334.831 262.608 335.161 261.915C335.49 261.213 335.941 260.68 336.513 260.316C337.093 259.952 337.743 259.77 338.463 259.77C339.191 259.77 339.841 259.952 340.413 260.316C340.985 260.68 341.435 261.213 341.765 261.915C342.103 262.608 342.272 263.453 342.272 264.45C342.272 265.447 342.103 266.296 341.765 266.998C341.435 267.691 340.985 268.22 340.413 268.584C339.841 268.948 339.191 269.13 338.463 269.13ZM338.463 267.661C338.887 267.661 339.256 267.548 339.568 267.323C339.88 267.089 340.122 266.734 340.296 266.257C340.478 265.78 340.569 265.178 340.569 264.45C340.569 263.713 340.478 263.111 340.296 262.643C340.122 262.166 339.88 261.815 339.568 261.59C339.256 261.356 338.887 261.239 338.463 261.239C338.055 261.239 337.691 261.356 337.371 261.59C337.059 261.815 336.812 262.166 336.63 262.643C336.456 263.111 336.37 263.713 336.37 264.45C336.37 265.178 336.456 265.78 336.63 266.257C336.812 266.734 337.059 267.089 337.371 267.323C337.691 267.548 338.055 267.661 338.463 267.661ZM343.326 270.963L344.08 268.09L344.301 269.052C343.998 269.052 343.742 268.961 343.534 268.779C343.335 268.588 343.235 268.333 343.235 268.012C343.235 267.683 343.335 267.423 343.534 267.232C343.742 267.033 343.994 266.933 344.288 266.933C344.592 266.933 344.843 267.033 345.042 267.232C345.242 267.431 345.341 267.691 345.341 268.012C345.341 268.099 345.333 268.194 345.315 268.298C345.298 268.393 345.268 268.506 345.224 268.636C345.19 268.766 345.129 268.931 345.042 269.13L344.379 270.963H343.326ZM350.222 269.13C349.399 269.13 348.692 268.957 348.103 268.61C347.514 268.255 347.063 267.743 346.751 267.076C346.439 266.409 346.283 265.585 346.283 264.606C346.283 263.566 346.469 262.686 346.842 261.967C347.223 261.248 347.748 260.702 348.415 260.329C349.091 259.956 349.867 259.77 350.742 259.77C351.201 259.77 351.639 259.818 352.055 259.913C352.48 260.008 352.839 260.156 353.134 260.355L352.51 261.629C352.259 261.464 351.986 261.352 351.691 261.291C351.405 261.222 351.102 261.187 350.781 261.187C349.923 261.187 349.243 261.451 348.74 261.98C348.237 262.509 347.986 263.289 347.986 264.32C347.986 264.485 347.99 264.68 347.999 264.905C348.008 265.122 348.038 265.343 348.09 265.568L347.57 264.996C347.726 264.641 347.938 264.346 348.207 264.112C348.484 263.869 348.809 263.687 349.182 263.566C349.563 263.445 349.975 263.384 350.417 263.384C351.015 263.384 351.548 263.501 352.016 263.735C352.484 263.96 352.857 264.285 353.134 264.71C353.411 265.126 353.55 265.616 353.55 266.179C353.55 266.777 353.403 267.297 353.108 267.739C352.813 268.181 352.415 268.523 351.912 268.766C351.409 269.009 350.846 269.13 350.222 269.13ZM350.131 267.804C350.478 267.804 350.785 267.743 351.054 267.622C351.323 267.492 351.531 267.31 351.678 267.076C351.834 266.842 351.912 266.569 351.912 266.257C351.912 265.78 351.747 265.403 351.418 265.126C351.089 264.849 350.647 264.71 350.092 264.71C349.728 264.71 349.407 264.779 349.13 264.918C348.861 265.048 348.645 265.23 348.48 265.464C348.324 265.698 348.246 265.967 348.246 266.27C348.246 266.547 348.32 266.803 348.467 267.037C348.614 267.271 348.827 267.457 349.104 267.596C349.39 267.735 349.732 267.804 350.131 267.804ZM355.083 269V259.9H356.474L360.452 266.543H359.724L363.637 259.9H365.028L365.041 269H363.442L363.429 262.409H363.767L360.439 267.96H359.685L356.305 262.409H356.695V269H355.083Z" fill="white"/>
<path d="M319 270.625H366.276V271.275H319V270.625Z" fill="white"/>
</g>
<g opacity="0.5">
<path d="M314.442 336.933V335.763L318.927 329.9H320.734L316.314 335.763L315.469 335.503H322.684V336.933H314.442ZM319.434 339V336.933L319.486 335.503V333.67H321.072V339H319.434ZM324.521 339V330.55L325.262 331.317H322.597V329.9H326.211V339H324.521ZM329.472 339V330.55L330.213 331.317H327.548V329.9H331.162V339H329.472ZM333.033 340.963L333.787 338.09L334.008 339.052C333.704 339.052 333.449 338.961 333.241 338.779C333.041 338.588 332.942 338.333 332.942 338.012C332.942 337.683 333.041 337.423 333.241 337.232C333.449 337.033 333.7 336.933 333.995 336.933C334.298 336.933 334.549 337.033 334.749 337.232C334.948 337.431 335.048 337.691 335.048 338.012C335.048 338.099 335.039 338.194 335.022 338.298C335.004 338.393 334.974 338.506 334.931 338.636C334.896 338.766 334.835 338.931 334.749 339.13L334.086 340.963H333.033ZM339.128 339.13C338.487 339.13 337.859 339.039 337.243 338.857C336.637 338.666 336.125 338.406 335.709 338.077L336.437 336.764C336.767 337.033 337.165 337.249 337.633 337.414C338.101 337.579 338.591 337.661 339.102 337.661C339.709 337.661 340.181 337.54 340.519 337.297C340.857 337.046 341.026 336.708 341.026 336.283C341.026 335.867 340.87 335.538 340.558 335.295C340.246 335.052 339.744 334.931 339.05 334.931H338.218V333.774L340.818 330.68L341.039 331.317H336.151V329.9H342.352V331.031L339.752 334.125L338.868 333.605H339.375C340.493 333.605 341.33 333.856 341.884 334.359C342.448 334.853 342.729 335.49 342.729 336.27C342.729 336.781 342.599 337.254 342.339 337.687C342.079 338.12 341.681 338.471 341.143 338.74C340.615 339 339.943 339.13 339.128 339.13ZM344.485 339V329.9H345.876L349.854 336.543H349.126L353.039 329.9H354.43L354.443 339H352.844L352.831 332.409H353.169L349.841 337.96H349.087L345.707 332.409H346.097V339H344.485Z" fill="white"/>
<path d="M314 340.625H355.678V341.275H314V340.625Z" fill="white"/>
</g>
<g opacity="0.5">
<path d="M91.225 132.13C90.471 132.13 89.8167 132.017 89.262 131.792C88.7073 131.567 88.2783 131.25 87.975 130.843C87.6717 130.427 87.52 129.942 87.52 129.387C87.52 128.832 87.6673 128.364 87.962 127.983C88.2567 127.602 88.6813 127.311 89.236 127.112C89.7907 126.913 90.4537 126.813 91.225 126.813C91.9963 126.813 92.6593 126.913 93.214 127.112C93.7773 127.311 94.2063 127.606 94.501 127.996C94.8043 128.377 94.956 128.841 94.956 129.387C94.956 129.942 94.8 130.427 94.488 130.843C94.1847 131.25 93.7513 131.567 93.188 131.792C92.6333 132.017 91.979 132.13 91.225 132.13ZM91.225 130.804C91.849 130.804 92.343 130.674 92.707 130.414C93.071 130.154 93.253 129.794 93.253 129.335C93.253 128.884 93.071 128.529 92.707 128.269C92.343 128.009 91.849 127.879 91.225 127.879C90.601 127.879 90.1113 128.009 89.756 128.269C89.4007 128.529 89.223 128.884 89.223 129.335C89.223 129.794 89.4007 130.154 89.756 130.414C90.1113 130.674 90.601 130.804 91.225 130.804ZM91.225 127.697C90.523 127.697 89.9207 127.606 89.418 127.424C88.9153 127.233 88.5253 126.96 88.248 126.605C87.9793 126.241 87.845 125.808 87.845 125.305C87.845 124.785 87.9837 124.339 88.261 123.966C88.547 123.585 88.9457 123.29 89.457 123.082C89.9683 122.874 90.5577 122.77 91.225 122.77C91.901 122.77 92.4947 122.874 93.006 123.082C93.5173 123.29 93.916 123.585 94.202 123.966C94.488 124.339 94.631 124.785 94.631 125.305C94.631 125.808 94.4923 126.241 94.215 126.605C93.9463 126.96 93.5563 127.233 93.045 127.424C92.5337 127.606 91.927 127.697 91.225 127.697ZM91.225 126.657C91.7623 126.657 92.187 126.544 92.499 126.319C92.811 126.085 92.967 125.773 92.967 125.383C92.967 124.976 92.8067 124.659 92.486 124.434C92.1653 124.209 91.745 124.096 91.225 124.096C90.705 124.096 90.289 124.209 89.977 124.434C89.665 124.659 89.509 124.976 89.509 125.383C89.509 125.773 89.6607 126.085 89.964 126.319C90.276 126.544 90.6963 126.657 91.225 126.657ZM97.5735 132L101.33 123.576L101.772 124.33H96.6115L97.4175 123.511V125.877H95.8445V122.9H102.916V124.031L99.3805 132H97.5735Z" fill="white"/>
<path d="M87 133.625H103.384V134.275H87V133.625Z" fill="white"/>
</g>
<g opacity="0.5">
<path d="M143.432 201.13C142.791 201.13 142.162 201.039 141.547 200.857C140.94 200.666 140.429 200.406 140.013 200.077L140.741 198.764C141.07 199.033 141.469 199.249 141.937 199.414C142.405 199.579 142.895 199.661 143.406 199.661C144.013 199.661 144.485 199.54 144.823 199.297C145.161 199.046 145.33 198.708 145.33 198.283C145.33 197.867 145.174 197.538 144.862 197.295C144.55 197.052 144.047 196.931 143.354 196.931H142.522V195.774L145.122 192.68L145.343 193.317H140.455V191.9H146.656V193.031L144.056 196.125L143.172 195.605H143.679C144.797 195.605 145.633 195.856 146.188 196.359C146.751 196.853 147.033 197.49 147.033 198.27C147.033 198.781 146.903 199.254 146.643 199.687C146.383 200.12 145.984 200.471 145.447 200.74C144.918 201 144.247 201.13 143.432 201.13ZM147.958 201V199.869L151.572 196.437C151.875 196.151 152.101 195.9 152.248 195.683C152.395 195.466 152.491 195.267 152.534 195.085C152.586 194.894 152.612 194.717 152.612 194.552C152.612 194.136 152.469 193.815 152.183 193.59C151.897 193.356 151.477 193.239 150.922 193.239C150.48 193.239 150.077 193.317 149.713 193.473C149.358 193.629 149.05 193.867 148.79 194.188L147.607 193.278C147.962 192.801 148.439 192.433 149.037 192.173C149.644 191.904 150.32 191.77 151.065 191.77C151.724 191.77 152.296 191.878 152.781 192.095C153.275 192.303 153.652 192.602 153.912 192.992C154.181 193.382 154.315 193.846 154.315 194.383C154.315 194.678 154.276 194.972 154.198 195.267C154.12 195.553 153.973 195.856 153.756 196.177C153.539 196.498 153.223 196.857 152.807 197.256L149.7 200.207L149.349 199.57H154.666V201H147.958Z" fill="white"/>
<path d="M140 202.625H155.069V203.275H140V202.625Z" fill="white"/>
</g>
<g opacity="0.5">
<path d="M108.511 270.13C107.688 270.13 106.981 269.957 106.392 269.61C105.803 269.255 105.352 268.743 105.04 268.076C104.728 267.409 104.572 266.585 104.572 265.606C104.572 264.566 104.758 263.686 105.131 262.967C105.512 262.248 106.037 261.702 106.704 261.329C107.38 260.956 108.156 260.77 109.031 260.77C109.49 260.77 109.928 260.818 110.344 260.913C110.769 261.008 111.128 261.156 111.423 261.355L110.799 262.629C110.548 262.464 110.275 262.352 109.98 262.291C109.694 262.222 109.391 262.187 109.07 262.187C108.212 262.187 107.532 262.451 107.029 262.98C106.526 263.509 106.275 264.289 106.275 265.32C106.275 265.485 106.279 265.68 106.288 265.905C106.297 266.122 106.327 266.343 106.379 266.568L105.859 265.996C106.015 265.641 106.227 265.346 106.496 265.112C106.773 264.869 107.098 264.687 107.471 264.566C107.852 264.445 108.264 264.384 108.706 264.384C109.304 264.384 109.837 264.501 110.305 264.735C110.773 264.96 111.146 265.285 111.423 265.71C111.7 266.126 111.839 266.616 111.839 267.179C111.839 267.777 111.692 268.297 111.397 268.739C111.102 269.181 110.704 269.523 110.201 269.766C109.698 270.009 109.135 270.13 108.511 270.13ZM108.42 268.804C108.767 268.804 109.074 268.743 109.343 268.622C109.612 268.492 109.82 268.31 109.967 268.076C110.123 267.842 110.201 267.569 110.201 267.257C110.201 266.78 110.036 266.403 109.707 266.126C109.378 265.849 108.936 265.71 108.381 265.71C108.017 265.71 107.696 265.779 107.419 265.918C107.15 266.048 106.934 266.23 106.769 266.464C106.613 266.698 106.535 266.967 106.535 267.27C106.535 267.547 106.609 267.803 106.756 268.037C106.903 268.271 107.116 268.457 107.393 268.596C107.679 268.735 108.021 268.804 108.42 268.804ZM115.79 260.77C116.622 260.77 117.329 260.948 117.909 261.303C118.499 261.65 118.949 262.157 119.261 262.824C119.573 263.491 119.729 264.315 119.729 265.294C119.729 266.334 119.539 267.214 119.157 267.933C118.785 268.652 118.265 269.198 117.597 269.571C116.93 269.944 116.154 270.13 115.27 270.13C114.811 270.13 114.373 270.082 113.957 269.987C113.541 269.892 113.182 269.744 112.878 269.545L113.502 268.271C113.754 268.436 114.027 268.553 114.321 268.622C114.616 268.683 114.919 268.713 115.231 268.713C116.089 268.713 116.77 268.449 117.272 267.92C117.775 267.391 118.026 266.611 118.026 265.58C118.026 265.415 118.022 265.225 118.013 265.008C118.005 264.783 117.974 264.557 117.922 264.332L118.442 264.904C118.295 265.259 118.083 265.558 117.805 265.801C117.528 266.035 117.203 266.213 116.83 266.334C116.458 266.455 116.046 266.516 115.595 266.516C115.006 266.516 114.473 266.403 113.996 266.178C113.528 265.944 113.156 265.619 112.878 265.203C112.601 264.778 112.462 264.284 112.462 263.721C112.462 263.114 112.61 262.594 112.904 262.161C113.199 261.719 113.598 261.377 114.1 261.134C114.612 260.891 115.175 260.77 115.79 260.77ZM115.881 262.096C115.535 262.096 115.227 262.161 114.958 262.291C114.69 262.412 114.477 262.59 114.321 262.824C114.174 263.049 114.1 263.322 114.1 263.643C114.1 264.12 114.265 264.497 114.594 264.774C114.924 265.051 115.366 265.19 115.92 265.19C116.284 265.19 116.605 265.125 116.882 264.995C117.16 264.856 117.376 264.67 117.532 264.436C117.688 264.193 117.766 263.925 117.766 263.63C117.766 263.344 117.693 263.088 117.545 262.863C117.398 262.629 117.186 262.443 116.908 262.304C116.631 262.165 116.289 262.096 115.881 262.096Z" fill="white"/>
<path d="M104 271.625H120.301V272.275H104V271.625Z" fill="white"/>
</g>
<g opacity="0.5">
<path d="M150.455 339V337.869L154.069 334.437C154.372 334.151 154.598 333.9 154.745 333.683C154.892 333.466 154.988 333.267 155.031 333.085C155.083 332.894 155.109 332.717 155.109 332.552C155.109 332.136 154.966 331.815 154.68 331.59C154.394 331.356 153.974 331.239 153.419 331.239C152.977 331.239 152.574 331.317 152.21 331.473C151.855 331.629 151.547 331.867 151.287 332.188L150.104 331.278C150.459 330.801 150.936 330.433 151.534 330.173C152.141 329.904 152.817 329.77 153.562 329.77C154.221 329.77 154.793 329.878 155.278 330.095C155.772 330.303 156.149 330.602 156.409 330.992C156.678 331.382 156.812 331.846 156.812 332.383C156.812 332.678 156.773 332.972 156.695 333.267C156.617 333.553 156.47 333.856 156.253 334.177C156.036 334.498 155.72 334.857 155.304 335.256L152.197 338.207L151.846 337.57H157.163V339H150.455ZM161.934 339.13C161.215 339.13 160.565 338.948 159.984 338.584C159.412 338.22 158.962 337.691 158.632 336.998C158.303 336.296 158.138 335.447 158.138 334.45C158.138 333.453 158.303 332.608 158.632 331.915C158.962 331.213 159.412 330.68 159.984 330.316C160.565 329.952 161.215 329.77 161.934 329.77C162.662 329.77 163.312 329.952 163.884 330.316C164.456 330.68 164.907 331.213 165.236 331.915C165.574 332.608 165.743 333.453 165.743 334.45C165.743 335.447 165.574 336.296 165.236 336.998C164.907 337.691 164.456 338.22 163.884 338.584C163.312 338.948 162.662 339.13 161.934 339.13ZM161.934 337.661C162.359 337.661 162.727 337.548 163.039 337.323C163.351 337.089 163.594 336.734 163.767 336.257C163.949 335.78 164.04 335.178 164.04 334.45C164.04 333.713 163.949 333.111 163.767 332.643C163.594 332.166 163.351 331.815 163.039 331.59C162.727 331.356 162.359 331.239 161.934 331.239C161.527 331.239 161.163 331.356 160.842 331.59C160.53 331.815 160.283 332.166 160.101 332.643C159.928 333.111 159.841 333.713 159.841 334.45C159.841 335.178 159.928 335.78 160.101 336.257C160.283 336.734 160.53 337.089 160.842 337.323C161.163 337.548 161.527 337.661 161.934 337.661Z" fill="white"/>
<path d="M150 340.625H166.315V341.275H150V340.625Z" fill="white"/>
</g>
<path d="M122.92 17L127.96 5.8H130.008L135.064 17H132.888L128.552 6.904H129.384L125.064 17H122.92ZM125.24 14.408L125.8 12.776H131.848L132.408 14.408H125.24ZM141.032 17.112C140.339 17.112 139.704 16.952 139.128 16.632C138.563 16.312 138.11 15.832 137.768 15.192C137.438 14.5413 137.272 13.72 137.272 12.728C137.272 11.7253 137.432 10.904 137.752 10.264C138.083 9.624 138.531 9.14933 139.096 8.84C139.662 8.52 140.307 8.36 141.032 8.36C141.875 8.36 142.616 8.54133 143.256 8.904C143.907 9.26667 144.419 9.77333 144.792 10.424C145.176 11.0747 145.368 11.8427 145.368 12.728C145.368 13.6133 145.176 14.3867 144.792 15.048C144.419 15.6987 143.907 16.2053 143.256 16.568C142.616 16.9307 141.875 17.112 141.032 17.112ZM136.296 20.104V8.456H138.2V10.472L138.136 12.744L138.296 15.016V20.104H136.296ZM140.808 15.4C141.288 15.4 141.715 15.2933 142.088 15.08C142.472 14.8667 142.776 14.5573 143 14.152C143.224 13.7467 143.336 13.272 143.336 12.728C143.336 12.1733 143.224 11.6987 143 11.304C142.776 10.8987 142.472 10.5893 142.088 10.376C141.715 10.1627 141.288 10.056 140.808 10.056C140.328 10.056 139.896 10.1627 139.512 10.376C139.128 10.5893 138.824 10.8987 138.6 11.304C138.376 11.6987 138.264 12.1733 138.264 12.728C138.264 13.272 138.376 13.7467 138.6 14.152C138.824 14.5573 139.128 14.8667 139.512 15.08C139.896 15.2933 140.328 15.4 140.808 15.4ZM151.105 17.112C150.23 17.112 149.452 16.9253 148.769 16.552C148.086 16.168 147.548 15.6453 147.153 14.984C146.758 14.3227 146.561 13.5707 146.561 12.728C146.561 11.8747 146.758 11.1227 147.153 10.472C147.548 9.81067 148.086 9.29333 148.769 8.92C149.452 8.54667 150.23 8.36 151.105 8.36C151.99 8.36 152.774 8.54667 153.457 8.92C154.15 9.29333 154.689 9.80533 155.073 10.456C155.468 11.1067 155.665 11.864 155.665 12.728C155.665 13.5707 155.468 14.3227 155.073 14.984C154.689 15.6453 154.15 16.168 153.457 16.552C152.774 16.9253 151.99 17.112 151.105 17.112ZM151.105 15.4C151.596 15.4 152.033 15.2933 152.417 15.08C152.801 14.8667 153.1 14.5573 153.313 14.152C153.537 13.7467 153.649 13.272 153.649 12.728C153.649 12.1733 153.537 11.6987 153.313 11.304C153.1 10.8987 152.801 10.5893 152.417 10.376C152.033 10.1627 151.601 10.056 151.121 10.056C150.63 10.056 150.193 10.1627 149.809 10.376C149.436 10.5893 149.137 10.8987 148.913 11.304C148.689 11.6987 148.577 12.1733 148.577 12.728C148.577 13.272 148.689 13.7467 148.913 14.152C149.137 14.5573 149.436 14.8667 149.809 15.08C150.193 15.2933 150.625 15.4 151.105 15.4ZM157.578 17V8.456H159.482V10.808L159.258 10.12C159.514 9.544 159.914 9.10667 160.458 8.808C161.012 8.50933 161.7 8.36 162.522 8.36V10.264C162.436 10.2427 162.356 10.232 162.282 10.232C162.207 10.2213 162.132 10.216 162.058 10.216C161.3 10.216 160.698 10.44 160.25 10.888C159.802 11.3253 159.578 11.9813 159.578 12.856V17H157.578ZM167.747 17.112C166.808 17.112 166.083 16.872 165.571 16.392C165.059 15.9013 164.803 15.1813 164.803 14.232V6.568H166.803V14.184C166.803 14.5893 166.904 14.904 167.107 15.128C167.32 15.352 167.613 15.464 167.987 15.464C168.435 15.464 168.808 15.3467 169.107 15.112L169.667 16.536C169.432 16.728 169.144 16.872 168.803 16.968C168.461 17.064 168.109 17.112 167.747 17.112ZM163.395 10.12V8.52H169.091V10.12H163.395ZM175.047 17.112C174.097 17.112 173.265 16.9253 172.551 16.552C171.847 16.168 171.297 15.6453 170.903 14.984C170.519 14.3227 170.327 13.5707 170.327 12.728C170.327 11.8747 170.513 11.1227 170.887 10.472C171.271 9.81067 171.793 9.29333 172.455 8.92C173.127 8.54667 173.889 8.36 174.743 8.36C175.575 8.36 176.316 8.54133 176.967 8.904C177.617 9.26667 178.129 9.77867 178.503 10.44C178.876 11.1013 179.063 11.88 179.063 12.776C179.063 12.8613 179.057 12.9573 179.047 13.064C179.047 13.1707 179.041 13.272 179.031 13.368H171.911V12.04H177.975L177.191 12.456C177.201 11.9653 177.1 11.5333 176.887 11.16C176.673 10.7867 176.38 10.4933 176.007 10.28C175.644 10.0667 175.223 9.96 174.743 9.96C174.252 9.96 173.82 10.0667 173.447 10.28C173.084 10.4933 172.796 10.792 172.583 11.176C172.38 11.5493 172.279 11.992 172.279 12.504V12.824C172.279 13.336 172.396 13.7893 172.631 14.184C172.865 14.5787 173.196 14.8827 173.623 15.096C174.049 15.3093 174.54 15.416 175.095 15.416C175.575 15.416 176.007 15.3413 176.391 15.192C176.775 15.0427 177.116 14.808 177.415 14.488L178.487 15.72C178.103 16.168 177.617 16.5147 177.031 16.76C176.455 16.9947 175.793 17.112 175.047 17.112ZM183.624 17.112C182.909 17.112 182.221 17.0213 181.56 16.84C180.909 16.648 180.392 16.4187 180.008 16.152L180.776 14.632C181.16 14.8773 181.619 15.08 182.152 15.24C182.685 15.4 183.219 15.48 183.752 15.48C184.381 15.48 184.835 15.3947 185.112 15.224C185.4 15.0533 185.544 14.824 185.544 14.536C185.544 14.3013 185.448 14.1253 185.256 14.008C185.064 13.88 184.813 13.784 184.504 13.72C184.195 13.656 183.848 13.5973 183.464 13.544C183.091 13.4907 182.712 13.4213 182.328 13.336C181.955 13.24 181.613 13.1067 181.304 12.936C180.995 12.7547 180.744 12.5147 180.552 12.216C180.36 11.9173 180.264 11.5227 180.264 11.032C180.264 10.488 180.419 10.0187 180.728 9.624C181.037 9.21867 181.469 8.90933 182.024 8.696C182.589 8.472 183.256 8.36 184.024 8.36C184.6 8.36 185.181 8.424 185.768 8.552C186.355 8.68 186.84 8.86133 187.224 9.096L186.456 10.616C186.051 10.3707 185.64 10.2053 185.224 10.12C184.819 10.024 184.413 9.976 184.008 9.976C183.4 9.976 182.947 10.0667 182.648 10.248C182.36 10.4293 182.216 10.6587 182.216 10.936C182.216 11.192 182.312 11.384 182.504 11.512C182.696 11.64 182.947 11.7413 183.256 11.816C183.565 11.8907 183.907 11.9547 184.28 12.008C184.664 12.0507 185.043 12.12 185.416 12.216C185.789 12.312 186.131 12.4453 186.44 12.616C186.76 12.776 187.016 13.0053 187.208 13.304C187.4 13.6027 187.496 13.992 187.496 14.472C187.496 15.0053 187.336 15.4693 187.016 15.864C186.707 16.2587 186.264 16.568 185.688 16.792C185.112 17.0053 184.424 17.112 183.624 17.112Z" fill="white"/>
<path d="M123 19H187.912V19.8H123V19Z" fill="white"/>
<path d="M297.816 17L292.92 5.8H295.176L299.544 15.928H298.248L302.664 5.8H304.744L299.864 17H297.816ZM308.933 17.112C308.059 17.112 307.28 16.9253 306.597 16.552C305.915 16.168 305.376 15.6453 304.981 14.984C304.587 14.3227 304.389 13.5707 304.389 12.728C304.389 11.8747 304.587 11.1227 304.981 10.472C305.376 9.81067 305.915 9.29333 306.597 8.92C307.28 8.54667 308.059 8.36 308.933 8.36C309.819 8.36 310.603 8.54667 311.285 8.92C311.979 9.29333 312.517 9.80533 312.901 10.456C313.296 11.1067 313.493 11.864 313.493 12.728C313.493 13.5707 313.296 14.3227 312.901 14.984C312.517 15.6453 311.979 16.168 311.285 16.552C310.603 16.9253 309.819 17.112 308.933 17.112ZM308.933 15.4C309.424 15.4 309.861 15.2933 310.245 15.08C310.629 14.8667 310.928 14.5573 311.141 14.152C311.365 13.7467 311.477 13.272 311.477 12.728C311.477 12.1733 311.365 11.6987 311.141 11.304C310.928 10.8987 310.629 10.5893 310.245 10.376C309.861 10.1627 309.429 10.056 308.949 10.056C308.459 10.056 308.021 10.1627 307.637 10.376C307.264 10.5893 306.965 10.8987 306.741 11.304C306.517 11.6987 306.405 12.1733 306.405 12.728C306.405 13.272 306.517 13.7467 306.741 14.152C306.965 14.5573 307.264 14.8667 307.637 15.08C308.021 15.2933 308.453 15.4 308.933 15.4ZM315.406 17V5.128H317.406V17H315.406ZM323.647 17.112C322.921 17.112 322.281 16.9787 321.727 16.712C321.172 16.4347 320.74 16.0187 320.431 15.464C320.121 14.8987 319.967 14.1893 319.967 13.336V8.456H321.967V13.064C321.967 13.832 322.137 14.408 322.479 14.792C322.831 15.1653 323.327 15.352 323.967 15.352C324.436 15.352 324.841 15.256 325.183 15.064C325.535 14.872 325.807 14.584 325.999 14.2C326.201 13.816 326.303 13.3413 326.303 12.776V8.456H328.303V17H326.399V14.696L326.735 15.4C326.447 15.9547 326.025 16.3813 325.471 16.68C324.916 16.968 324.308 17.112 323.647 17.112ZM341.705 8.36C342.388 8.36 342.991 8.49333 343.513 8.76C344.047 9.02667 344.463 9.43733 344.761 9.992C345.06 10.536 345.209 11.24 345.209 12.104V17H343.209V12.36C343.209 11.6027 343.044 11.0373 342.713 10.664C342.383 10.2907 341.908 10.104 341.289 10.104C340.852 10.104 340.463 10.2 340.121 10.392C339.791 10.584 339.529 10.8667 339.337 11.24C339.156 11.6133 339.065 12.088 339.065 12.664V17H337.065V12.36C337.065 11.6027 336.9 11.0373 336.569 10.664C336.239 10.2907 335.764 10.104 335.145 10.104C334.708 10.104 334.319 10.2 333.977 10.392C333.647 10.584 333.385 10.8667 333.193 11.24C333.012 11.6133 332.921 12.088 332.921 12.664V17H330.921V8.456H332.825V10.728L332.489 10.056C332.777 9.50133 333.193 9.08 333.737 8.792C334.292 8.504 334.921 8.36 335.625 8.36C336.425 8.36 337.119 8.55733 337.705 8.952C338.303 9.34667 338.697 9.944 338.889 10.744L338.105 10.472C338.383 9.832 338.841 9.32 339.481 8.936C340.121 8.552 340.863 8.36 341.705 8.36ZM351.797 17.112C350.847 17.112 350.015 16.9253 349.301 16.552C348.597 16.168 348.047 15.6453 347.653 14.984C347.269 14.3227 347.077 13.5707 347.077 12.728C347.077 11.8747 347.263 11.1227 347.637 10.472C348.021 9.81067 348.543 9.29333 349.205 8.92C349.877 8.54667 350.639 8.36 351.493 8.36C352.325 8.36 353.066 8.54133 353.717 8.904C354.367 9.26667 354.879 9.77867 355.253 10.44C355.626 11.1013 355.813 11.88 355.813 12.776C355.813 12.8613 355.807 12.9573 355.797 13.064C355.797 13.1707 355.791 13.272 355.781 13.368H348.661V12.04H354.725L353.941 12.456C353.951 11.9653 353.85 11.5333 353.637 11.16C353.423 10.7867 353.13 10.4933 352.757 10.28C352.394 10.0667 351.973 9.96 351.493 9.96C351.002 9.96 350.57 10.0667 350.197 10.28C349.834 10.4933 349.546 10.792 349.333 11.176C349.13 11.5493 349.029 11.992 349.029 12.504V12.824C349.029 13.336 349.146 13.7893 349.381 14.184C349.615 14.5787 349.946 14.8827 350.373 15.096C350.799 15.3093 351.29 15.416 351.845 15.416C352.325 15.416 352.757 15.3413 353.141 15.192C353.525 15.0427 353.866 14.808 354.165 14.488L355.237 15.72C354.853 16.168 354.367 16.5147 353.781 16.76C353.205 16.9947 352.543 17.112 351.797 17.112Z" fill="white"/>
<path d="M293 19H356.421V19.8H293V19Z" fill="white"/>
<g opacity="0.5">
<path d="M214.982 56.708H219.868V58.248H214.982V56.708ZM215.136 62H213.316V52.2H220.47V53.726H215.136V62ZM222.062 62V54.524H223.812V62H222.062ZM222.944 53.292C222.617 53.292 222.347 53.1893 222.132 52.984C221.927 52.7787 221.824 52.5313 221.824 52.242C221.824 51.9433 221.927 51.696 222.132 51.5C222.347 51.2947 222.617 51.192 222.944 51.192C223.271 51.192 223.537 51.29 223.742 51.486C223.957 51.6727 224.064 51.9107 224.064 52.2C224.064 52.508 223.961 52.7693 223.756 52.984C223.551 53.1893 223.28 53.292 222.944 53.292ZM230.351 54.44C230.948 54.44 231.48 54.5567 231.947 54.79C232.423 55.0233 232.796 55.3827 233.067 55.868C233.338 56.344 233.473 56.96 233.473 57.716V62H231.723V57.94C231.723 57.2773 231.564 56.7827 231.247 56.456C230.939 56.1293 230.505 55.966 229.945 55.966C229.534 55.966 229.17 56.05 228.853 56.218C228.536 56.386 228.288 56.638 228.111 56.974C227.943 57.3007 227.859 57.716 227.859 58.22V62H226.109V54.524H227.775V56.54L227.481 55.924C227.742 55.448 228.12 55.084 228.615 54.832C229.119 54.5707 229.698 54.44 230.351 54.44ZM237.849 62V53.74H234.601V52.2H242.917V53.74H239.669V62H237.849ZM246.863 62.098C246.033 62.098 245.305 61.9347 244.679 61.608C244.063 61.272 243.583 60.8147 243.237 60.236C242.901 59.6573 242.733 58.9993 242.733 58.262C242.733 57.5153 242.897 56.8573 243.223 56.288C243.559 55.7093 244.017 55.2567 244.595 54.93C245.183 54.6033 245.851 54.44 246.597 54.44C247.325 54.44 247.974 54.5987 248.543 54.916C249.113 55.2333 249.561 55.6813 249.887 56.26C250.214 56.8387 250.377 57.52 250.377 58.304C250.377 58.3787 250.373 58.4627 250.363 58.556C250.363 58.6493 250.359 58.738 250.349 58.822H244.119V57.66H249.425L248.739 58.024C248.749 57.5947 248.66 57.2167 248.473 56.89C248.287 56.5633 248.03 56.3067 247.703 56.12C247.386 55.9333 247.017 55.84 246.597 55.84C246.168 55.84 245.79 55.9333 245.463 56.12C245.146 56.3067 244.894 56.568 244.707 56.904C244.53 57.2307 244.441 57.618 244.441 58.066V58.346C244.441 58.794 244.544 59.1907 244.749 59.536C244.955 59.8813 245.244 60.1473 245.617 60.334C245.991 60.5207 246.42 60.614 246.905 60.614C247.325 60.614 247.703 60.5487 248.039 60.418C248.375 60.2873 248.674 60.082 248.935 59.802L249.873 60.88C249.537 61.272 249.113 61.5753 248.599 61.79C248.095 61.9953 247.517 62.098 246.863 62.098ZM255.488 62.098C254.704 62.098 254.004 61.9347 253.388 61.608C252.781 61.272 252.305 60.8147 251.96 60.236C251.615 59.6573 251.442 58.9993 251.442 58.262C251.442 57.5153 251.615 56.8573 251.96 56.288C252.305 55.7093 252.781 55.2567 253.388 54.93C254.004 54.6033 254.704 54.44 255.488 54.44C256.216 54.44 256.855 54.5893 257.406 54.888C257.966 55.1773 258.391 55.6067 258.68 56.176L257.336 56.96C257.112 56.6053 256.837 56.344 256.51 56.176C256.193 56.008 255.847 55.924 255.474 55.924C255.045 55.924 254.657 56.0173 254.312 56.204C253.967 56.3907 253.696 56.6613 253.5 57.016C253.304 57.3613 253.206 57.7767 253.206 58.262C253.206 58.7473 253.304 59.1673 253.5 59.522C253.696 59.8673 253.967 60.1333 254.312 60.32C254.657 60.5067 255.045 60.6 255.474 60.6C255.847 60.6 256.193 60.516 256.51 60.348C256.837 60.18 257.112 59.9187 257.336 59.564L258.68 60.348C258.391 60.908 257.966 61.342 257.406 61.65C256.855 61.9487 256.216 62.098 255.488 62.098ZM264.367 54.44C264.964 54.44 265.496 54.5567 265.963 54.79C266.439 55.0233 266.812 55.3827 267.083 55.868C267.353 56.344 267.489 56.96 267.489 57.716V62H265.739V57.94C265.739 57.2773 265.58 56.7827 265.263 56.456C264.955 56.1293 264.521 55.966 263.961 55.966C263.55 55.966 263.186 56.05 262.869 56.218C262.551 56.386 262.304 56.638 262.127 56.974C261.959 57.3007 261.875 57.716 261.875 58.22V62H260.125V51.612H261.875V56.54L261.497 55.924C261.758 55.448 262.136 55.084 262.631 54.832C263.135 54.5707 263.713 54.44 264.367 54.44Z" fill="white"/>
<path d="M212 63.75H268.567V64.45H212V63.75Z" fill="white"/>
</g>
<g opacity="0.5">
<path d="M204.316 132V122.2H208.348C209.216 122.2 209.958 122.34 210.574 122.62C211.199 122.9 211.68 123.301 212.016 123.824C212.352 124.347 212.52 124.967 212.52 125.686C212.52 126.405 212.352 127.025 212.016 127.548C211.68 128.061 211.199 128.458 210.574 128.738C209.958 129.009 209.216 129.144 208.348 129.144H205.324L206.136 128.318V132H204.316ZM210.728 132L208.25 128.444H210.196L212.688 132H210.728ZM206.136 128.514L205.324 127.646H208.264C209.067 127.646 209.669 127.473 210.07 127.128C210.481 126.783 210.686 126.302 210.686 125.686C210.686 125.061 210.481 124.58 210.07 124.244C209.669 123.908 209.067 123.74 208.264 123.74H205.324L206.136 122.844V128.514ZM217.902 132.098C217.072 132.098 216.344 131.935 215.718 131.608C215.102 131.272 214.622 130.815 214.276 130.236C213.94 129.657 213.772 128.999 213.772 128.262C213.772 127.515 213.936 126.857 214.262 126.288C214.598 125.709 215.056 125.257 215.634 124.93C216.222 124.603 216.89 124.44 217.636 124.44C218.364 124.44 219.013 124.599 219.582 124.916C220.152 125.233 220.6 125.681 220.926 126.26C221.253 126.839 221.416 127.52 221.416 128.304C221.416 128.379 221.412 128.463 221.402 128.556C221.402 128.649 221.398 128.738 221.388 128.822H215.158V127.66H220.464L219.778 128.024C219.788 127.595 219.699 127.217 219.512 126.89C219.326 126.563 219.069 126.307 218.742 126.12C218.425 125.933 218.056 125.84 217.636 125.84C217.207 125.84 216.829 125.933 216.502 126.12C216.185 126.307 215.933 126.568 215.746 126.904C215.569 127.231 215.48 127.618 215.48 128.066V128.346C215.48 128.794 215.583 129.191 215.788 129.536C215.994 129.881 216.283 130.147 216.656 130.334C217.03 130.521 217.459 130.614 217.944 130.614C218.364 130.614 218.742 130.549 219.078 130.418C219.414 130.287 219.713 130.082 219.974 129.802L220.912 130.88C220.576 131.272 220.152 131.575 219.638 131.79C219.134 131.995 218.556 132.098 217.902 132.098ZM225.911 132.098C225.09 132.098 224.455 131.888 224.007 131.468C223.559 131.039 223.335 130.409 223.335 129.578V122.872H225.085V129.536C225.085 129.891 225.174 130.166 225.351 130.362C225.538 130.558 225.795 130.656 226.121 130.656C226.513 130.656 226.84 130.553 227.101 130.348L227.591 131.594C227.386 131.762 227.134 131.888 226.835 131.972C226.537 132.056 226.229 132.098 225.911 132.098ZM222.103 125.98V124.58H227.087V125.98H222.103ZM233.637 132V130.488L233.539 130.166V127.52C233.539 127.007 233.385 126.61 233.077 126.33C232.769 126.041 232.302 125.896 231.677 125.896C231.257 125.896 230.841 125.961 230.431 126.092C230.029 126.223 229.689 126.405 229.409 126.638L228.723 125.364C229.124 125.056 229.6 124.827 230.151 124.678C230.711 124.519 231.289 124.44 231.887 124.44C232.969 124.44 233.805 124.701 234.393 125.224C234.99 125.737 235.289 126.535 235.289 127.618V132H233.637ZM231.285 132.098C230.725 132.098 230.235 132.005 229.815 131.818C229.395 131.622 229.068 131.356 228.835 131.02C228.611 130.675 228.499 130.287 228.499 129.858C228.499 129.438 228.597 129.06 228.793 128.724C228.998 128.388 229.329 128.122 229.787 127.926C230.244 127.73 230.851 127.632 231.607 127.632H233.777V128.794H231.733C231.135 128.794 230.734 128.892 230.529 129.088C230.323 129.275 230.221 129.508 230.221 129.788C230.221 130.105 230.347 130.357 230.599 130.544C230.851 130.731 231.201 130.824 231.649 130.824C232.078 130.824 232.461 130.726 232.797 130.53C233.142 130.334 233.389 130.045 233.539 129.662L233.833 130.712C233.665 131.151 233.361 131.491 232.923 131.734C232.493 131.977 231.947 132.098 231.285 132.098ZM237.535 132V124.524H239.285V132H237.535ZM238.417 123.292C238.09 123.292 237.819 123.189 237.605 122.984C237.399 122.779 237.297 122.531 237.297 122.242C237.297 121.943 237.399 121.696 237.605 121.5C237.819 121.295 238.09 121.192 238.417 121.192C238.743 121.192 239.009 121.29 239.215 121.486C239.429 121.673 239.537 121.911 239.537 122.2C239.537 122.508 239.434 122.769 239.229 122.984C239.023 123.189 238.753 123.292 238.417 123.292ZM241.582 132V121.612H243.332V132H241.582ZM247.784 132V123.74H244.536V122.2H252.852V123.74H249.604V132H247.784ZM256.799 132.098C255.968 132.098 255.24 131.935 254.615 131.608C253.999 131.272 253.518 130.815 253.173 130.236C252.837 129.657 252.669 128.999 252.669 128.262C252.669 127.515 252.832 126.857 253.159 126.288C253.495 125.709 253.952 125.257 254.531 124.93C255.119 124.603 255.786 124.44 256.533 124.44C257.261 124.44 257.909 124.599 258.479 124.916C259.048 125.233 259.496 125.681 259.823 126.26C260.149 126.839 260.313 127.52 260.313 128.304C260.313 128.379 260.308 128.463 260.299 128.556C260.299 128.649 260.294 128.738 260.285 128.822H254.055V127.66H259.361L258.675 128.024C258.684 127.595 258.595 127.217 258.409 126.89C258.222 126.563 257.965 126.307 257.639 126.12C257.321 125.933 256.953 125.84 256.533 125.84C256.103 125.84 255.725 125.933 255.399 126.12C255.081 126.307 254.829 126.568 254.643 126.904C254.465 127.231 254.377 127.618 254.377 128.066V128.346C254.377 128.794 254.479 129.191 254.685 129.536C254.89 129.881 255.179 130.147 255.553 130.334C255.926 130.521 256.355 130.614 256.841 130.614C257.261 130.614 257.639 130.549 257.975 130.418C258.311 130.287 258.609 130.082 258.871 129.802L259.809 130.88C259.473 131.272 259.048 131.575 258.535 131.79C258.031 131.995 257.452 132.098 256.799 132.098ZM265.424 132.098C264.64 132.098 263.94 131.935 263.324 131.608C262.717 131.272 262.241 130.815 261.896 130.236C261.55 129.657 261.378 128.999 261.378 128.262C261.378 127.515 261.55 126.857 261.896 126.288C262.241 125.709 262.717 125.257 263.324 124.93C263.94 124.603 264.64 124.44 265.424 124.44C266.152 124.44 266.791 124.589 267.342 124.888C267.902 125.177 268.326 125.607 268.616 126.176L267.272 126.96C267.048 126.605 266.772 126.344 266.446 126.176C266.128 126.008 265.783 125.924 265.41 125.924C264.98 125.924 264.593 126.017 264.248 126.204C263.902 126.391 263.632 126.661 263.436 127.016C263.24 127.361 263.142 127.777 263.142 128.262C263.142 128.747 263.24 129.167 263.436 129.522C263.632 129.867 263.902 130.133 264.248 130.32C264.593 130.507 264.98 130.6 265.41 130.6C265.783 130.6 266.128 130.516 266.446 130.348C266.772 130.18 267.048 129.919 267.272 129.564L268.616 130.348C268.326 130.908 267.902 131.342 267.342 131.65C266.791 131.949 266.152 132.098 265.424 132.098ZM274.302 124.44C274.899 124.44 275.431 124.557 275.898 124.79C276.374 125.023 276.747 125.383 277.018 125.868C277.289 126.344 277.424 126.96 277.424 127.716V132H275.674V127.94C275.674 127.277 275.515 126.783 275.198 126.456C274.89 126.129 274.456 125.966 273.896 125.966C273.485 125.966 273.121 126.05 272.804 126.218C272.487 126.386 272.239 126.638 272.062 126.974C271.894 127.301 271.81 127.716 271.81 128.22V132H270.06V121.612H271.81V126.54L271.432 125.924C271.693 125.448 272.071 125.084 272.566 124.832C273.07 124.571 273.649 124.44 274.302 124.44Z" fill="white"/>
<path d="M203 133.75H278.502V134.45H203V133.75Z" fill="white"/>
</g>
<g opacity="0.5">
<path d="M201.316 201V191.2H205.348C206.216 191.2 206.958 191.34 207.574 191.62C208.199 191.9 208.68 192.301 209.016 192.824C209.352 193.347 209.52 193.967 209.52 194.686C209.52 195.405 209.352 196.025 209.016 196.548C208.68 197.061 208.199 197.458 207.574 197.738C206.958 198.009 206.216 198.144 205.348 198.144H202.324L203.136 197.318V201H201.316ZM207.728 201L205.25 197.444H207.196L209.688 201H207.728ZM203.136 197.514L202.324 196.646H205.264C206.067 196.646 206.669 196.473 207.07 196.128C207.481 195.783 207.686 195.302 207.686 194.686C207.686 194.061 207.481 193.58 207.07 193.244C206.669 192.908 206.067 192.74 205.264 192.74H202.324L203.136 191.844V197.514ZM214.902 201.098C214.072 201.098 213.344 200.935 212.718 200.608C212.102 200.272 211.622 199.815 211.276 199.236C210.94 198.657 210.772 197.999 210.772 197.262C210.772 196.515 210.936 195.857 211.262 195.288C211.598 194.709 212.056 194.257 212.634 193.93C213.222 193.603 213.89 193.44 214.636 193.44C215.364 193.44 216.013 193.599 216.582 193.916C217.152 194.233 217.6 194.681 217.926 195.26C218.253 195.839 218.416 196.52 218.416 197.304C218.416 197.379 218.412 197.463 218.402 197.556C218.402 197.649 218.398 197.738 218.388 197.822H212.158V196.66H217.464L216.778 197.024C216.788 196.595 216.699 196.217 216.512 195.89C216.326 195.563 216.069 195.307 215.742 195.12C215.425 194.933 215.056 194.84 214.636 194.84C214.207 194.84 213.829 194.933 213.502 195.12C213.185 195.307 212.933 195.568 212.746 195.904C212.569 196.231 212.48 196.618 212.48 197.066V197.346C212.48 197.794 212.583 198.191 212.788 198.536C212.994 198.881 213.283 199.147 213.656 199.334C214.03 199.521 214.459 199.614 214.944 199.614C215.364 199.614 215.742 199.549 216.078 199.418C216.414 199.287 216.713 199.082 216.974 198.802L217.912 199.88C217.576 200.272 217.152 200.575 216.638 200.79C216.134 200.995 215.556 201.098 214.902 201.098ZM224.498 201V199.488L224.4 199.166V196.52C224.4 196.007 224.246 195.61 223.938 195.33C223.63 195.041 223.163 194.896 222.538 194.896C222.118 194.896 221.703 194.961 221.292 195.092C220.891 195.223 220.55 195.405 220.27 195.638L219.584 194.364C219.985 194.056 220.461 193.827 221.012 193.678C221.572 193.519 222.151 193.44 222.748 193.44C223.831 193.44 224.666 193.701 225.254 194.224C225.851 194.737 226.15 195.535 226.15 196.618V201H224.498ZM222.146 201.098C221.586 201.098 221.096 201.005 220.676 200.818C220.256 200.622 219.929 200.356 219.696 200.02C219.472 199.675 219.36 199.287 219.36 198.858C219.36 198.438 219.458 198.06 219.654 197.724C219.859 197.388 220.191 197.122 220.648 196.926C221.105 196.73 221.712 196.632 222.468 196.632H224.638V197.794H222.594C221.997 197.794 221.595 197.892 221.39 198.088C221.185 198.275 221.082 198.508 221.082 198.788C221.082 199.105 221.208 199.357 221.46 199.544C221.712 199.731 222.062 199.824 222.51 199.824C222.939 199.824 223.322 199.726 223.658 199.53C224.003 199.334 224.251 199.045 224.4 198.662L224.694 199.712C224.526 200.151 224.223 200.491 223.784 200.734C223.355 200.977 222.809 201.098 222.146 201.098ZM228.396 201V190.612H230.146V201H228.396ZM238.16 195.274H243.032V196.772H238.16V195.274ZM238.3 199.474H243.83V201H236.48V191.2H243.634V192.726H238.3V199.474ZM247.933 201.098C247.307 201.098 246.705 201.019 246.127 200.86C245.557 200.692 245.105 200.491 244.769 200.258L245.441 198.928C245.777 199.143 246.178 199.32 246.645 199.46C247.111 199.6 247.578 199.67 248.045 199.67C248.595 199.67 248.992 199.595 249.235 199.446C249.487 199.297 249.613 199.096 249.613 198.844C249.613 198.639 249.529 198.485 249.361 198.382C249.193 198.27 248.973 198.186 248.703 198.13C248.432 198.074 248.129 198.023 247.793 197.976C247.466 197.929 247.135 197.869 246.799 197.794C246.472 197.71 246.173 197.593 245.903 197.444C245.632 197.285 245.413 197.075 245.245 196.814C245.077 196.553 244.993 196.207 244.993 195.778C244.993 195.302 245.128 194.891 245.399 194.546C245.669 194.191 246.047 193.921 246.533 193.734C247.027 193.538 247.611 193.44 248.283 193.44C248.787 193.44 249.295 193.496 249.809 193.608C250.322 193.72 250.747 193.879 251.083 194.084L250.411 195.414C250.056 195.199 249.697 195.055 249.333 194.98C248.978 194.896 248.623 194.854 248.269 194.854C247.737 194.854 247.34 194.933 247.079 195.092C246.827 195.251 246.701 195.451 246.701 195.694C246.701 195.918 246.785 196.086 246.953 196.198C247.121 196.31 247.34 196.399 247.611 196.464C247.881 196.529 248.18 196.585 248.507 196.632C248.843 196.669 249.174 196.73 249.501 196.814C249.827 196.898 250.126 197.015 250.397 197.164C250.677 197.304 250.901 197.505 251.069 197.766C251.237 198.027 251.321 198.368 251.321 198.788C251.321 199.255 251.181 199.661 250.901 200.006C250.63 200.351 250.243 200.622 249.739 200.818C249.235 201.005 248.633 201.098 247.933 201.098ZM255.642 201.098C254.82 201.098 254.186 200.888 253.738 200.468C253.29 200.039 253.066 199.409 253.066 198.578V191.872H254.816V198.536C254.816 198.891 254.904 199.166 255.082 199.362C255.268 199.558 255.525 199.656 255.852 199.656C256.244 199.656 256.57 199.553 256.832 199.348L257.322 200.594C257.116 200.762 256.864 200.888 256.566 200.972C256.267 201.056 255.959 201.098 255.642 201.098ZM251.834 194.98V193.58H256.818V194.98H251.834ZM263.367 201V199.488L263.269 199.166V196.52C263.269 196.007 263.115 195.61 262.807 195.33C262.499 195.041 262.033 194.896 261.407 194.896C260.987 194.896 260.572 194.961 260.161 195.092C259.76 195.223 259.419 195.405 259.139 195.638L258.453 194.364C258.855 194.056 259.331 193.827 259.881 193.678C260.441 193.519 261.02 193.44 261.617 193.44C262.7 193.44 263.535 193.701 264.123 194.224C264.721 194.737 265.019 195.535 265.019 196.618V201H263.367ZM261.015 201.098C260.455 201.098 259.965 201.005 259.545 200.818C259.125 200.622 258.799 200.356 258.565 200.02C258.341 199.675 258.229 199.287 258.229 198.858C258.229 198.438 258.327 198.06 258.523 197.724C258.729 197.388 259.06 197.122 259.517 196.926C259.975 196.73 260.581 196.632 261.337 196.632H263.507V197.794H261.463C260.866 197.794 260.465 197.892 260.259 198.088C260.054 198.275 259.951 198.508 259.951 198.788C259.951 199.105 260.077 199.357 260.329 199.544C260.581 199.731 260.931 199.824 261.379 199.824C261.809 199.824 262.191 199.726 262.527 199.53C262.873 199.334 263.12 199.045 263.269 198.662L263.563 199.712C263.395 200.151 263.092 200.491 262.653 200.734C262.224 200.977 261.678 201.098 261.015 201.098ZM270.079 201.098C269.258 201.098 268.623 200.888 268.175 200.468C267.727 200.039 267.503 199.409 267.503 198.578V191.872H269.253V198.536C269.253 198.891 269.342 199.166 269.519 199.362C269.706 199.558 269.963 199.656 270.289 199.656C270.681 199.656 271.008 199.553 271.269 199.348L271.759 200.594C271.554 200.762 271.302 200.888 271.003 200.972C270.705 201.056 270.397 201.098 270.079 201.098ZM266.271 194.98V193.58H271.255V194.98H266.271ZM276.467 201.098C275.636 201.098 274.908 200.935 274.283 200.608C273.667 200.272 273.186 199.815 272.841 199.236C272.505 198.657 272.337 197.999 272.337 197.262C272.337 196.515 272.5 195.857 272.827 195.288C273.163 194.709 273.62 194.257 274.199 193.93C274.787 193.603 275.454 193.44 276.201 193.44C276.929 193.44 277.577 193.599 278.147 193.916C278.716 194.233 279.164 194.681 279.491 195.26C279.817 195.839 279.981 196.52 279.981 197.304C279.981 197.379 279.976 197.463 279.967 197.556C279.967 197.649 279.962 197.738 279.953 197.822H273.723V196.66H279.029L278.343 197.024C278.352 196.595 278.263 196.217 278.077 195.89C277.89 195.563 277.633 195.307 277.307 195.12C276.989 194.933 276.621 194.84 276.201 194.84C275.771 194.84 275.393 194.933 275.067 195.12C274.749 195.307 274.497 195.568 274.311 195.904C274.133 196.231 274.045 196.618 274.045 197.066V197.346C274.045 197.794 274.147 198.191 274.353 198.536C274.558 198.881 274.847 199.147 275.221 199.334C275.594 199.521 276.023 199.614 276.509 199.614C276.929 199.614 277.307 199.549 277.643 199.418C277.979 199.287 278.277 199.082 278.539 198.802L279.477 199.88C279.141 200.272 278.716 200.575 278.203 200.79C277.699 200.995 277.12 201.098 276.467 201.098Z" fill="white"/>
<path d="M200 202.75H280.513V203.45H200V202.75Z" fill="white"/>
</g>
<g opacity="0.5">
<path d="M207.204 260.2H209.024V270H207.204V260.2ZM202.136 270H200.316V260.2H202.136V270ZM207.344 265.8H201.982V264.246H207.344V265.8ZM214.996 270.098C214.165 270.098 213.437 269.935 212.812 269.608C212.196 269.272 211.715 268.815 211.37 268.236C211.034 267.657 210.866 266.999 210.866 266.262C210.866 265.515 211.029 264.857 211.356 264.288C211.692 263.709 212.149 263.257 212.728 262.93C213.316 262.603 213.983 262.44 214.73 262.44C215.458 262.44 216.107 262.599 216.676 262.916C217.245 263.233 217.693 263.681 218.02 264.26C218.347 264.839 218.51 265.52 218.51 266.304C218.51 266.379 218.505 266.463 218.496 266.556C218.496 266.649 218.491 266.738 218.482 266.822H212.252V265.66H217.558L216.872 266.024C216.881 265.595 216.793 265.217 216.606 264.89C216.419 264.563 216.163 264.307 215.836 264.12C215.519 263.933 215.15 263.84 214.73 263.84C214.301 263.84 213.923 263.933 213.596 264.12C213.279 264.307 213.027 264.568 212.84 264.904C212.663 265.231 212.574 265.618 212.574 266.066V266.346C212.574 266.794 212.677 267.191 212.882 267.536C213.087 267.881 213.377 268.147 213.75 268.334C214.123 268.521 214.553 268.614 215.038 268.614C215.458 268.614 215.836 268.549 216.172 268.418C216.508 268.287 216.807 268.082 217.068 267.802L218.006 268.88C217.67 269.272 217.245 269.575 216.732 269.79C216.228 269.995 215.649 270.098 214.996 270.098ZM224.592 270V268.488L224.494 268.166V265.52C224.494 265.007 224.34 264.61 224.032 264.33C223.724 264.041 223.257 263.896 222.632 263.896C222.212 263.896 221.797 263.961 221.386 264.092C220.985 264.223 220.644 264.405 220.364 264.638L219.678 263.364C220.079 263.056 220.555 262.827 221.106 262.678C221.666 262.519 222.245 262.44 222.842 262.44C223.925 262.44 224.76 262.701 225.348 263.224C225.945 263.737 226.244 264.535 226.244 265.618V270H224.592ZM222.24 270.098C221.68 270.098 221.19 270.005 220.77 269.818C220.35 269.622 220.023 269.356 219.79 269.02C219.566 268.675 219.454 268.287 219.454 267.858C219.454 267.438 219.552 267.06 219.748 266.724C219.953 266.388 220.285 266.122 220.742 265.926C221.199 265.73 221.806 265.632 222.562 265.632H224.732V266.794H222.688C222.091 266.794 221.689 266.892 221.484 267.088C221.279 267.275 221.176 267.508 221.176 267.788C221.176 268.105 221.302 268.357 221.554 268.544C221.806 268.731 222.156 268.824 222.604 268.824C223.033 268.824 223.416 268.726 223.752 268.53C224.097 268.334 224.345 268.045 224.494 267.662L224.788 268.712C224.62 269.151 224.317 269.491 223.878 269.734C223.449 269.977 222.903 270.098 222.24 270.098ZM228.49 270V259.612H230.24V270H228.49ZM235.72 270.098C234.898 270.098 234.264 269.888 233.816 269.468C233.368 269.039 233.144 268.409 233.144 267.578V260.872H234.894V267.536C234.894 267.891 234.982 268.166 235.16 268.362C235.346 268.558 235.603 268.656 235.93 268.656C236.322 268.656 236.648 268.553 236.91 268.348L237.4 269.594C237.194 269.762 236.942 269.888 236.644 269.972C236.345 270.056 236.037 270.098 235.72 270.098ZM231.912 263.98V262.58H236.896V263.98H231.912ZM243.081 262.44C243.679 262.44 244.211 262.557 244.677 262.79C245.153 263.023 245.527 263.383 245.797 263.868C246.068 264.344 246.203 264.96 246.203 265.716V270H244.453V265.94C244.453 265.277 244.295 264.783 243.977 264.456C243.669 264.129 243.235 263.966 242.675 263.966C242.265 263.966 241.901 264.05 241.583 264.218C241.266 264.386 241.019 264.638 240.841 264.974C240.673 265.301 240.589 265.716 240.589 266.22V270H238.839V259.612H240.589V264.54L240.211 263.924C240.473 263.448 240.851 263.084 241.345 262.832C241.849 262.571 242.428 262.44 243.081 262.44ZM250.579 270V261.74H247.331V260.2H255.647V261.74H252.399V270H250.579ZM259.594 270.098C258.763 270.098 258.035 269.935 257.41 269.608C256.794 269.272 256.313 268.815 255.968 268.236C255.632 267.657 255.464 266.999 255.464 266.262C255.464 265.515 255.627 264.857 255.954 264.288C256.29 263.709 256.747 263.257 257.326 262.93C257.914 262.603 258.581 262.44 259.328 262.44C260.056 262.44 260.704 262.599 261.274 262.916C261.843 263.233 262.291 263.681 262.618 264.26C262.944 264.839 263.108 265.52 263.108 266.304C263.108 266.379 263.103 266.463 263.094 266.556C263.094 266.649 263.089 266.738 263.08 266.822H256.85V265.66H262.156L261.47 266.024C261.479 265.595 261.39 265.217 261.204 264.89C261.017 264.563 260.76 264.307 260.434 264.12C260.116 263.933 259.748 263.84 259.328 263.84C258.898 263.84 258.52 263.933 258.194 264.12C257.876 264.307 257.624 264.568 257.438 264.904C257.26 265.231 257.172 265.618 257.172 266.066V266.346C257.172 266.794 257.274 267.191 257.48 267.536C257.685 267.881 257.974 268.147 258.348 268.334C258.721 268.521 259.15 268.614 259.636 268.614C260.056 268.614 260.434 268.549 260.77 268.418C261.106 268.287 261.404 268.082 261.666 267.802L262.604 268.88C262.268 269.272 261.843 269.575 261.33 269.79C260.826 269.995 260.247 270.098 259.594 270.098ZM268.219 270.098C267.435 270.098 266.735 269.935 266.119 269.608C265.512 269.272 265.036 268.815 264.691 268.236C264.345 267.657 264.173 266.999 264.173 266.262C264.173 265.515 264.345 264.857 264.691 264.288C265.036 263.709 265.512 263.257 266.119 262.93C266.735 262.603 267.435 262.44 268.219 262.44C268.947 262.44 269.586 262.589 270.137 262.888C270.697 263.177 271.121 263.607 271.411 264.176L270.067 264.96C269.843 264.605 269.567 264.344 269.241 264.176C268.923 264.008 268.578 263.924 268.205 263.924C267.775 263.924 267.388 264.017 267.043 264.204C266.697 264.391 266.427 264.661 266.231 265.016C266.035 265.361 265.937 265.777 265.937 266.262C265.937 266.747 266.035 267.167 266.231 267.522C266.427 267.867 266.697 268.133 267.043 268.32C267.388 268.507 267.775 268.6 268.205 268.6C268.578 268.6 268.923 268.516 269.241 268.348C269.567 268.18 269.843 267.919 270.067 267.564L271.411 268.348C271.121 268.908 270.697 269.342 270.137 269.65C269.586 269.949 268.947 270.098 268.219 270.098ZM277.097 262.44C277.694 262.44 278.226 262.557 278.693 262.79C279.169 263.023 279.542 263.383 279.813 263.868C280.084 264.344 280.219 264.96 280.219 265.716V270H278.469V265.94C278.469 265.277 278.31 264.783 277.993 264.456C277.685 264.129 277.251 263.966 276.691 263.966C276.28 263.966 275.916 264.05 275.599 264.218C275.282 264.386 275.034 264.638 274.857 264.974C274.689 265.301 274.605 265.716 274.605 266.22V270H272.855V259.612H274.605V264.54L274.227 263.924C274.488 263.448 274.866 263.084 275.361 262.832C275.865 262.571 276.444 262.44 277.097 262.44Z" fill="white"/>
<path d="M199 271.75H281.297V272.45H199V271.75Z" fill="white"/>
</g>
<g opacity="0.5">
<path d="M201.316 339V329.2H202.814L207.098 336.354H206.314L210.528 329.2H212.026L212.04 339H210.318L210.304 331.902H210.668L207.084 337.88H206.272L202.632 331.902H203.052V339H201.316ZM217.879 339.098C217.114 339.098 216.432 338.935 215.835 338.608C215.238 338.272 214.766 337.815 214.421 337.236C214.076 336.657 213.903 335.999 213.903 335.262C213.903 334.515 214.076 333.857 214.421 333.288C214.766 332.709 215.238 332.257 215.835 331.93C216.432 331.603 217.114 331.44 217.879 331.44C218.654 331.44 219.34 331.603 219.937 331.93C220.544 332.257 221.015 332.705 221.351 333.274C221.696 333.843 221.869 334.506 221.869 335.262C221.869 335.999 221.696 336.657 221.351 337.236C221.015 337.815 220.544 338.272 219.937 338.608C219.34 338.935 218.654 339.098 217.879 339.098ZM217.879 337.6C218.308 337.6 218.691 337.507 219.027 337.32C219.363 337.133 219.624 336.863 219.811 336.508C220.007 336.153 220.105 335.738 220.105 335.262C220.105 334.777 220.007 334.361 219.811 334.016C219.624 333.661 219.363 333.391 219.027 333.204C218.691 333.017 218.313 332.924 217.893 332.924C217.464 332.924 217.081 333.017 216.745 333.204C216.418 333.391 216.157 333.661 215.961 334.016C215.765 334.361 215.667 334.777 215.667 335.262C215.667 335.738 215.765 336.153 215.961 336.508C216.157 336.863 216.418 337.133 216.745 337.32C217.081 337.507 217.459 337.6 217.879 337.6ZM227.687 339.098C227.052 339.098 226.487 338.958 225.993 338.678C225.498 338.398 225.106 337.978 224.817 337.418C224.537 336.849 224.397 336.13 224.397 335.262C224.397 334.385 224.541 333.666 224.831 333.106C225.129 332.546 225.526 332.131 226.021 331.86C226.525 331.58 227.08 331.44 227.687 331.44C228.424 331.44 229.073 331.599 229.633 331.916C230.202 332.233 230.65 332.677 230.977 333.246C231.313 333.815 231.481 334.487 231.481 335.262C231.481 336.037 231.313 336.709 230.977 337.278C230.65 337.847 230.202 338.295 229.633 338.622C229.073 338.939 228.424 339.098 227.687 339.098ZM223.543 339V328.612H225.293V333.26L225.153 335.248L225.209 337.236V339H223.543ZM227.491 337.6C227.911 337.6 228.284 337.507 228.611 337.32C228.947 337.133 229.213 336.863 229.409 336.508C229.605 336.153 229.703 335.738 229.703 335.262C229.703 334.777 229.605 334.361 229.409 334.016C229.213 333.661 228.947 333.391 228.611 333.204C228.284 333.017 227.911 332.924 227.491 332.924C227.071 332.924 226.693 333.017 226.357 333.204C226.021 333.391 225.755 333.661 225.559 334.016C225.363 334.361 225.265 334.777 225.265 335.262C225.265 335.738 225.363 336.153 225.559 336.508C225.755 336.863 226.021 337.133 226.357 337.32C226.693 337.507 227.071 337.6 227.491 337.6ZM233.14 339V331.524H234.89V339H233.14ZM234.022 330.292C233.696 330.292 233.425 330.189 233.21 329.984C233.005 329.779 232.902 329.531 232.902 329.242C232.902 328.943 233.005 328.696 233.21 328.5C233.425 328.295 233.696 328.192 234.022 328.192C234.349 328.192 234.615 328.29 234.82 328.486C235.035 328.673 235.142 328.911 235.142 329.2C235.142 329.508 235.04 329.769 234.834 329.984C234.629 330.189 234.358 330.292 234.022 330.292ZM237.187 339V328.612H238.937V339H237.187ZM241.234 339V331.524H242.984V339H241.234ZM242.116 330.292C241.789 330.292 241.519 330.189 241.304 329.984C241.099 329.779 240.996 329.531 240.996 329.242C240.996 328.943 241.099 328.696 241.304 328.5C241.519 328.295 241.789 328.192 242.116 328.192C242.443 328.192 242.709 328.29 242.914 328.486C243.129 328.673 243.236 328.911 243.236 329.2C243.236 329.508 243.133 329.769 242.928 329.984C242.723 330.189 242.452 330.292 242.116 330.292ZM248.445 339.098C247.726 339.098 247.077 338.939 246.499 338.622C245.929 338.295 245.481 337.847 245.155 337.278C244.828 336.709 244.665 336.037 244.665 335.262C244.665 334.487 244.828 333.815 245.155 333.246C245.481 332.677 245.929 332.233 246.499 331.916C247.077 331.599 247.726 331.44 248.445 331.44C249.07 331.44 249.63 331.58 250.125 331.86C250.619 332.131 251.011 332.546 251.301 333.106C251.59 333.666 251.735 334.385 251.735 335.262C251.735 336.13 251.595 336.849 251.315 337.418C251.035 337.978 250.647 338.398 250.153 338.678C249.658 338.958 249.089 339.098 248.445 339.098ZM248.655 337.6C249.075 337.6 249.448 337.507 249.775 337.32C250.111 337.133 250.377 336.863 250.573 336.508C250.778 336.153 250.881 335.738 250.881 335.262C250.881 334.777 250.778 334.361 250.573 334.016C250.377 333.661 250.111 333.391 249.775 333.204C249.448 333.017 249.075 332.924 248.655 332.924C248.235 332.924 247.857 333.017 247.521 333.204C247.194 333.391 246.928 333.661 246.723 334.016C246.527 334.361 246.429 334.777 246.429 335.262C246.429 335.738 246.527 336.153 246.723 336.508C246.928 336.863 247.194 337.133 247.521 337.32C247.857 337.507 248.235 337.6 248.655 337.6ZM250.923 339V337.236L250.993 335.248L250.853 333.26V328.612H252.589V339H250.923ZM259.498 339V337.488L259.4 337.166V334.52C259.4 334.007 259.246 333.61 258.938 333.33C258.63 333.041 258.163 332.896 257.538 332.896C257.118 332.896 256.703 332.961 256.292 333.092C255.891 333.223 255.55 333.405 255.27 333.638L254.584 332.364C254.985 332.056 255.461 331.827 256.012 331.678C256.572 331.519 257.151 331.44 257.748 331.44C258.831 331.44 259.666 331.701 260.254 332.224C260.851 332.737 261.15 333.535 261.15 334.618V339H259.498ZM257.146 339.098C256.586 339.098 256.096 339.005 255.676 338.818C255.256 338.622 254.929 338.356 254.696 338.02C254.472 337.675 254.36 337.287 254.36 336.858C254.36 336.438 254.458 336.06 254.654 335.724C254.859 335.388 255.191 335.122 255.648 334.926C256.105 334.73 256.712 334.632 257.468 334.632H259.638V335.794H257.594C256.997 335.794 256.595 335.892 256.39 336.088C256.185 336.275 256.082 336.508 256.082 336.788C256.082 337.105 256.208 337.357 256.46 337.544C256.712 337.731 257.062 337.824 257.51 337.824C257.939 337.824 258.322 337.726 258.658 337.53C259.003 337.334 259.251 337.045 259.4 336.662L259.694 337.712C259.526 338.151 259.223 338.491 258.784 338.734C258.355 338.977 257.809 339.098 257.146 339.098ZM266.574 339.098C265.855 339.098 265.206 338.939 264.628 338.622C264.058 338.295 263.61 337.847 263.284 337.278C262.957 336.709 262.794 336.037 262.794 335.262C262.794 334.487 262.957 333.815 263.284 333.246C263.61 332.677 264.058 332.233 264.628 331.916C265.206 331.599 265.855 331.44 266.574 331.44C267.199 331.44 267.759 331.58 268.254 331.86C268.748 332.131 269.14 332.546 269.43 333.106C269.719 333.666 269.864 334.385 269.864 335.262C269.864 336.13 269.724 336.849 269.444 337.418C269.164 337.978 268.776 338.398 268.282 338.678C267.787 338.958 267.218 339.098 266.574 339.098ZM266.784 337.6C267.204 337.6 267.577 337.507 267.904 337.32C268.24 337.133 268.506 336.863 268.702 336.508C268.907 336.153 269.01 335.738 269.01 335.262C269.01 334.777 268.907 334.361 268.702 334.016C268.506 333.661 268.24 333.391 267.904 333.204C267.577 333.017 267.204 332.924 266.784 332.924C266.364 332.924 265.986 333.017 265.65 333.204C265.323 333.391 265.057 333.661 264.852 334.016C264.656 334.361 264.558 334.777 264.558 335.262C264.558 335.738 264.656 336.153 264.852 336.508C265.057 336.863 265.323 337.133 265.65 337.32C265.986 337.507 266.364 337.6 266.784 337.6ZM269.052 339V337.236L269.122 335.248L268.982 333.26V328.612H270.718V339H269.052ZM276.535 339.098C275.704 339.098 274.976 338.935 274.351 338.608C273.735 338.272 273.254 337.815 272.909 337.236C272.573 336.657 272.405 335.999 272.405 335.262C272.405 334.515 272.568 333.857 272.895 333.288C273.231 332.709 273.688 332.257 274.267 331.93C274.855 331.603 275.522 331.44 276.269 331.44C276.997 331.44 277.646 331.599 278.215 331.916C278.784 332.233 279.232 332.681 279.559 333.26C279.886 333.839 280.049 334.52 280.049 335.304C280.049 335.379 280.044 335.463 280.035 335.556C280.035 335.649 280.03 335.738 280.021 335.822H273.791V334.66H279.097L278.411 335.024C278.42 334.595 278.332 334.217 278.145 333.89C277.958 333.563 277.702 333.307 277.375 333.12C277.058 332.933 276.689 332.84 276.269 332.84C275.84 332.84 275.462 332.933 275.135 333.12C274.818 333.307 274.566 333.568 274.379 333.904C274.202 334.231 274.113 334.618 274.113 335.066V335.346C274.113 335.794 274.216 336.191 274.421 336.536C274.626 336.881 274.916 337.147 275.289 337.334C275.662 337.521 276.092 337.614 276.577 337.614C276.997 337.614 277.375 337.549 277.711 337.418C278.047 337.287 278.346 337.082 278.607 336.802L279.545 337.88C279.209 338.272 278.784 338.575 278.271 338.79C277.767 338.995 277.188 339.098 276.535 339.098Z" fill="white"/>
<path d="M200 340.75H280.581V341.45H200V340.75Z" fill="white"/>
</g>
<rect x="293" y="25" width="158" height="66" fill="white"/>
<rect x="-0.46315" y="0.46315" width="162.074" height="65.0737" transform="matrix(-1 0 0 1 187.074 25)" stroke="white" stroke-width="0.926299"/>
<rect x="293" y="94" width="59" height="66" fill="white"/>
<rect x="-0.46315" y="0.46315" width="79.0737" height="65.0737" transform="matrix(-1 0 0 1 187.074 94)" stroke="white" stroke-width="0.926299"/>
<rect x="293" y="163" width="45" height="66" fill="white"/>
<rect x="-0.46315" y="0.46315" width="27.0737" height="65.0737" transform="matrix(-1 0 0 1 187.074 163)" stroke="white" stroke-width="0.926299"/>
<rect x="293" y="232" width="22" height="66" fill="white"/>
<rect x="-0.46315" y="0.46315" width="62.0737" height="65.0737" transform="matrix(-1 0 0 1 187.074 232)" stroke="white" stroke-width="0.926299"/>
<rect x="293" y="301" width="17" height="66" fill="white"/>
<rect x="-0.46315" y="0.46315" width="16.0737" height="65.0737" transform="matrix(-1 0 0 1 187.074 301)" stroke="white" stroke-width="0.926299"/>
</svg>
